<svg width="234" height="333" viewBox="0 0 234 333" fill="none" xmlns="http://www.w3.org/2000/svg">
<g clip-path="url(#clip0_5_3)">
<path d="M224.703 0.37793H9.29712C4.37119 0.37793 0.37793 4.38307 0.37793 9.32367V323.676C0.37793 328.617 4.37119 332.622 9.29712 332.622H224.703C229.629 332.622 233.622 328.617 233.622 323.676V9.32367C233.622 4.38307 229.629 0.37793 224.703 0.37793Z" fill="black" stroke="#808080" stroke-width="0.755906"/>
<path d="M116.977 73C115.098 68.9798 112.673 65.2232 109.791 61.8699C107.933 59.7073 105.89 57.7162 103.821 55.7611C102.204 54.2339 100.559 52.715 99.2366 50.92C98.3431 49.7074 97.5974 48.3583 97.2422 46.8875C96.5987 44.2237 97.2987 41.3681 98.6193 38.9753C99.3926 37.5739 100.382 36.2852 101.601 35.2607C103.412 33.7385 105.775 32.8284 108.118 33.0271C110.267 33.2092 112.276 34.3031 113.844 35.8053C115.232 37.1349 116.313 38.7923 117 40.6083C117.687 38.7923 118.768 37.1349 120.156 35.8053C121.724 34.3031 123.733 33.2092 125.882 33.0271C128.225 32.8284 130.588 33.7385 132.399 35.2607C133.618 36.2852 134.607 37.5739 135.381 38.9753C136.701 41.3681 137.401 44.2237 136.758 46.8875C136.403 48.3583 135.657 49.7074 134.763 50.92C133.441 52.715 131.795 54.2339 130.179 55.7611C128.11 57.7162 126.067 59.7073 124.209 61.8699C121.327 65.2232 118.902 68.9798 117.023 73" fill="#FF0000"/>
<path d="M117.023 260C118.902 264.02 121.327 267.777 124.209 271.13C126.067 273.293 128.11 275.284 130.179 277.239C131.796 278.766 133.441 280.285 134.763 282.08C135.657 283.293 136.403 284.642 136.758 286.112C137.401 288.776 136.701 291.632 135.381 294.025C134.607 295.426 133.618 296.715 132.399 297.739C130.588 299.261 128.225 300.172 125.882 299.973C123.733 299.791 121.724 298.697 120.156 297.195C118.768 295.865 117.687 294.208 117 292.392C116.313 294.208 115.232 295.865 113.844 297.195C112.276 298.697 110.267 299.791 108.118 299.973C105.775 300.172 103.412 299.261 101.601 297.739C100.382 296.715 99.3927 295.426 98.6193 294.025C97.2987 291.632 96.5987 288.776 97.2422 286.112C97.5974 284.642 98.3431 283.293 99.2366 282.08C100.559 280.285 102.205 278.766 103.821 277.239C105.89 275.284 107.933 273.293 109.791 271.13C112.673 267.777 115.098 264.02 116.977 260" fill="#FF0000"/>
<path d="M170 220H148.437L139.915 197.96H95.4552L86.5632 220H65L107.015 113H128.059L170 220ZM132.135 178.102L117.685 141.368L103.162 178.102H132.135Z" fill="#FF0000"/>
<path d="M31 50H26.0713L24.1235 42.1727H13.9612L11.9287 50H7L16.6034 12H21.4135L31 50ZM22.3451 35.1203L19.0423 22.0748L15.7227 35.1203H22.3451Z" fill="#FF0000"/>
<path d="M19.4037 80.891C18.5193 78.9924 17.3777 77.2182 16.0213 75.6345C15.1465 74.6132 14.185 73.6728 13.2108 72.7495C12.4499 72.0282 11.6754 71.3109 11.0528 70.4632C10.6322 69.8905 10.2812 69.2533 10.114 68.5587C9.81111 67.3007 10.1407 65.9521 10.7622 64.822C11.1263 64.1602 11.5921 63.5515 12.1658 63.0677C13.0183 62.3488 14.1305 61.919 15.2335 62.0128C16.2451 62.0988 17.191 62.6154 17.9291 63.3249C18.5824 63.9528 19.0912 64.7355 19.4146 65.5932C19.7379 64.7355 20.2467 63.9528 20.9 63.3249C21.6382 62.6154 22.5841 62.0988 23.5956 62.0128C24.6986 61.919 25.8108 62.3488 26.6633 63.0677C27.2371 63.5515 27.7028 64.1602 28.0669 64.822C28.6885 65.9521 29.018 67.3007 28.7151 68.5587C28.5479 69.2533 28.1969 69.8905 27.7763 70.4632C27.1537 71.3109 26.3792 72.0282 25.6183 72.7495C24.6442 73.6728 23.6826 74.6132 22.8079 75.6345C21.4514 77.2182 20.3098 78.9924 19.4254 80.891" fill="#FF0000"/>
</g>
<defs>
<clipPath id="clip0_5_3">
<rect width="234" height="333" fill="white"/>
</clipPath>
</defs>
</svg>
