<svg width="234" height="333" viewBox="0 0 234 333" fill="none" xmlns="http://www.w3.org/2000/svg">
<g clip-path="url(#clip0_8_133)">
<path d="M224.703 0.37793H9.29715C4.37122 0.37793 0.37796 4.38307 0.37796 9.32367V323.676C0.37796 328.617 4.37122 332.622 9.29715 332.622H224.703C229.629 332.622 233.622 328.617 233.622 323.676V9.32367C233.622 4.38307 229.629 0.37793 224.703 0.37793Z" fill="#1B1B1B" stroke="#808080" stroke-width="0.755906"/>
<path d="M117.098 241C125.083 226.025 135.39 212.031 147.637 199.54C155.534 191.485 164.216 184.068 173.011 176.785C179.881 171.096 186.873 165.438 192.494 158.752C196.292 154.235 199.461 149.209 200.971 143.731C203.705 133.808 200.73 123.171 195.118 114.258C191.831 109.038 187.626 104.237 182.446 100.421C174.749 94.7508 164.707 91.3607 154.749 92.1008C145.616 92.7794 137.076 96.854 130.411 102.45C124.513 107.403 119.919 113.576 117 120.341C114.081 113.576 109.487 107.403 103.589 102.45C96.9242 96.854 88.3838 92.7794 79.2513 92.1008C69.2928 91.3607 59.2509 94.7508 51.5543 100.421C46.3742 104.237 42.1688 109.038 38.8819 114.258C33.2695 123.171 30.2946 133.808 33.0292 143.731C34.539 149.209 37.7081 154.235 41.5058 158.752C47.127 165.438 54.1191 171.096 60.9892 176.785C69.7843 184.068 78.4657 191.485 86.3635 199.54C98.6099 212.031 108.917 226.025 116.902 241" fill="#FF0000"/>
<path d="M31.791 44.4487C31.791 44.8867 31.7129 45.2722 31.5567 45.6051C31.1403 45.7452 30.6891 45.8153 30.2032 45.8153H10.9928C9.84742 45.8153 9.27475 45.2022 9.27475 43.9758C9.27475 43.7656 9.2921 43.4327 9.32681 42.9772C9.36151 42.5042 9.37887 42.1449 9.37887 41.8997C9.37887 40.7434 9.88212 40.1653 10.8886 40.1653H17.3702V15.8832H9.45696C8.34633 15.8832 7.79102 15.27 7.79102 14.0436C7.79102 13.7808 7.81705 13.3603 7.86911 12.7822C7.93852 12.1865 7.97323 11.7398 7.97323 11.4419C7.97323 10.8463 8.52854 10.5484 9.63917 10.5484C9.95154 10.5484 10.5416 10.5834 11.4092 10.6535C12.2769 10.7061 12.9537 10.7323 13.4396 10.7323C16.2162 10.7323 17.8995 9.75998 18.4895 7.81531H23.4613V40.1653C24.624 40.1653 25.8734 40.1301 27.2097 40.06C28.5632 39.9725 29.3702 39.9287 29.6305 39.9287C30.637 39.9287 31.2617 40.2003 31.5047 40.7434C31.6956 41.2164 31.791 42.4515 31.791 44.4487H31.791Z" fill="#FF0000"/>
<path d="M56 27.4533C56 39.8178 52.0281 46 44.0843 46C36.0281 46 32 39.7833 32 27.3497C32 14.4499 36.1083 8 44.325 8C52.1083 8 56 14.4844 56 27.4533ZM49.7412 26.9093C49.7412 18.0504 47.8235 13.621 43.988 13.621C41.7412 13.621 40.1444 15.3738 39.1976 18.8793C38.6038 21.0898 38.3069 23.8442 38.3069 27.1425C38.3069 36.0014 40.2006 40.4309 43.988 40.4309C46.2508 40.4309 47.8636 38.6867 48.8265 35.1984C49.4363 32.9534 49.7412 30.1904 49.7412 26.9093V26.9093Z" fill="#FF0000"/>
<path d="M202.209 288.551C202.209 288.113 202.287 287.728 202.443 287.395C202.86 287.255 203.311 287.185 203.797 287.185H223.007C224.153 287.185 224.725 287.798 224.725 289.024C224.725 289.234 224.708 289.567 224.673 290.023C224.638 290.496 224.621 290.855 224.621 291.1C224.621 292.257 224.118 292.835 223.111 292.835H216.63V317.117H224.543C225.654 317.117 226.209 317.73 226.209 318.956C226.209 319.219 226.183 319.64 226.131 320.218C226.062 320.813 226.027 321.26 226.027 321.558C226.027 322.154 225.471 322.452 224.361 322.452C224.048 322.452 223.459 322.417 222.591 322.346C221.723 322.294 221.046 322.268 220.56 322.268C217.784 322.268 216.101 323.24 215.511 325.185H210.539V292.835C209.376 292.835 208.127 292.87 206.79 292.94C205.437 293.028 204.63 293.071 204.369 293.071C203.363 293.071 202.738 292.8 202.495 292.257C202.304 291.784 202.209 290.548 202.209 288.551V288.551Z" fill="#FF0000"/>
<path d="M178 305.547C178 293.182 181.972 287 189.916 287C197.972 287 202 293.217 202 305.65C202 318.55 197.892 325 189.675 325C181.892 325 178 318.516 178 305.547V305.547ZM184.259 306.091C184.259 314.95 186.176 319.379 190.012 319.379C192.259 319.379 193.856 317.626 194.802 314.121C195.396 311.91 195.693 309.156 195.693 305.858C195.693 296.999 193.799 292.569 190.012 292.569C187.749 292.569 186.136 294.313 185.173 297.802C184.564 300.047 184.259 302.81 184.259 306.091V306.091Z" fill="#FF0000"/>
<path d="M214.404 256C213.519 257.899 212.378 259.673 211.021 261.257C210.147 262.278 209.185 263.218 208.211 264.142C207.45 264.863 206.675 265.58 206.053 266.428C205.632 267.001 205.281 267.638 205.114 268.332C204.811 269.59 205.141 270.939 205.762 272.069C206.126 272.731 206.592 273.339 207.166 273.823C208.018 274.542 209.131 274.972 210.234 274.878C211.245 274.792 212.191 274.276 212.929 273.566C213.582 272.938 214.091 272.155 214.415 271.298C214.738 272.155 215.247 272.938 215.9 273.566C216.638 274.276 217.584 274.792 218.596 274.878C219.699 274.972 220.811 274.542 221.663 273.823C222.237 273.339 222.703 272.731 223.067 272.069C223.689 270.939 224.018 269.59 223.715 268.332C223.548 267.638 223.197 267.001 222.776 266.428C222.154 265.58 221.379 264.863 220.618 264.142C219.644 263.218 218.683 262.278 217.808 261.257C216.451 259.673 215.31 257.899 214.425 256" fill="#FF0000"/>
<path d="M20.4037 77.891C19.5193 75.9924 18.3777 74.2182 17.0213 72.6345C16.1465 71.6132 15.185 70.6729 14.2108 69.7495C13.4499 69.0283 12.6755 68.3109 12.0528 67.4632C11.6322 66.8905 11.2812 66.2533 11.114 65.5587C10.8111 64.3007 11.1406 62.9521 11.7622 61.822C12.1263 61.1602 12.5921 60.5515 13.1658 60.0676C14.0183 59.3488 15.1305 58.919 16.2335 59.0128C17.2451 59.0988 18.191 59.6154 18.9291 60.3249C19.5824 60.9528 20.0913 61.7356 20.4146 62.5932C20.7379 61.7356 21.2467 60.9528 21.9 60.3249C22.6382 59.6154 23.5841 59.0988 24.5956 59.0128C25.6986 58.919 26.8108 59.3488 27.6633 60.0676C28.2371 60.5515 28.7028 61.1602 29.0669 61.822C29.6885 62.9521 30.018 64.3007 29.7151 65.5587C29.5479 66.2533 29.1969 66.8905 28.7763 67.4632C28.1537 68.3109 27.3792 69.0283 26.6183 69.7495C25.6442 70.6729 24.6826 71.6132 23.8079 72.6345C22.4515 74.2182 21.3098 75.9924 20.4254 77.891" fill="#FF0000"/>
</g>
<defs>
<clipPath id="clip0_8_133">
<rect width="234" height="333" fill="white"/>
</clipPath>
</defs>
</svg>
