<svg width="234" height="333" viewBox="0 0 234 333" fill="none" xmlns="http://www.w3.org/2000/svg">
<g clip-path="url(#clip0_5_83)">
<path d="M224.703 0.37793H9.29715C4.37122 0.37793 0.37796 4.38307 0.37796 9.32367V323.676C0.37796 328.617 4.37122 332.622 9.29715 332.622H224.703C229.629 332.622 233.622 328.617 233.622 323.676V9.32367C233.622 4.38307 229.629 0.37793 224.703 0.37793Z" fill="#1B1B1B" stroke="#808080" stroke-width="0.755906"/>
<path d="M23.4037 76.7065C22.5193 74.8079 21.3777 73.0337 20.0213 71.45C19.1465 70.4286 18.185 69.4883 17.2108 68.565C16.4499 67.8438 15.6754 67.1264 15.0528 66.2787C14.6322 65.7059 14.2812 65.0688 14.114 64.3742C13.8111 63.1162 14.1407 61.7675 14.7622 60.6374C15.1263 59.9756 15.5921 59.367 16.1658 58.8832C17.0183 58.1643 18.1305 57.7344 19.2335 57.8282C20.2451 57.9142 21.191 58.4309 21.9291 59.1404C22.5824 59.7683 23.0912 60.551 23.4146 61.4087C23.7379 60.551 24.2467 59.7683 24.9 59.1404C25.6382 58.4309 26.5841 57.9142 27.5956 57.8282C28.6986 57.7343 29.8108 58.1643 30.6633 58.8832C31.2371 59.367 31.7028 59.9756 32.0669 60.6374C32.6885 61.7675 33.018 63.1162 32.7151 64.3742C32.5479 65.0688 32.1969 65.7059 31.7763 66.2787C31.1537 67.1264 30.3792 67.8438 29.6183 68.565C28.6442 69.4883 27.6826 70.4286 26.8079 71.45C25.4514 73.0337 24.3098 74.8079 23.4254 76.7065" fill="#FF0000"/>
<path d="M31.791 32.9999C31.791 36.9216 30.6705 40.038 28.4295 42.349C26.205 44.66 23.2472 45.8154 19.5562 45.8154C16.0135 45.8154 13.2122 44.8964 11.1525 43.0581C8.91151 41.0972 7.79102 38.2697 7.79102 34.5757C7.79102 33.9804 8.23592 33.6827 9.12572 33.6827H12.3636C12.7097 33.6827 13.031 33.7353 13.3276 33.8403C13.4264 34.0154 13.4924 34.243 13.5253 34.5231C13.8054 36.5014 14.341 37.9196 15.1319 38.7775C16.0217 39.7404 17.3894 40.2218 19.2349 40.2218C21.0804 40.2218 22.5717 39.5303 23.7086 38.1472C24.7797 36.8341 25.3152 35.1884 25.3152 33.2101C25.3152 28.3255 23.412 25.8832 19.6056 25.8832C18.2215 25.8832 16.8291 26.3909 15.4285 27.4063H11.3502C10.9712 27.4063 10.6087 27.3538 10.2627 27.2487C10.0979 27.0737 10.0155 26.8724 10.0155 26.6448C10.0155 24.1587 10.1391 21.0248 10.3863 17.2432C10.6005 14.0918 10.8147 10.9493 11.0289 7.81543H29.5665C29.9949 7.81543 30.3822 7.88545 30.7282 8.0255C30.8765 8.37565 30.9506 9.60114 30.9506 11.702C30.9506 12.0522 30.9342 12.3411 30.9012 12.5687C30.7859 13.1289 30.308 13.409 29.4676 13.409H16.0464C16.0959 14.3544 16.0217 15.7989 15.824 17.7422C15.6262 19.668 15.5521 21.1036 15.6015 22.049C17.2987 20.9286 19.0701 20.3683 20.9156 20.3683C24.3101 20.3683 26.996 21.5939 28.9733 24.0449C30.8518 26.3559 31.791 29.3409 31.791 32.9999V32.9999Z" fill="#FF0000"/>
<path d="M117.098 241C125.083 226.025 135.39 212.031 147.637 199.54C155.534 191.485 164.216 184.068 173.011 176.785C179.881 171.096 186.873 165.438 192.494 158.752C196.292 154.235 199.461 149.209 200.971 143.731C203.705 133.808 200.73 123.171 195.118 114.258C191.831 109.038 187.626 104.237 182.446 100.421C174.749 94.7509 164.707 91.3607 154.749 92.1008C145.616 92.7794 137.076 96.854 130.411 102.45C124.513 107.403 119.919 113.576 117 120.341C114.081 113.576 109.487 107.403 103.589 102.45C96.9242 96.854 88.3838 92.7794 79.2513 92.1008C69.2928 91.3607 59.2509 94.7509 51.5543 100.421C46.3742 104.237 42.1688 109.038 38.8819 114.258C33.2695 123.171 30.2946 133.808 33.0292 143.731C34.539 149.209 37.7081 154.235 41.5058 158.752C47.127 165.438 54.1191 171.096 60.9892 176.785C69.7843 184.068 78.4657 191.485 86.3635 199.54C98.6099 212.031 108.917 226.025 116.902 241" fill="#FF0000"/>
</g>
<defs>
<clipPath id="clip0_5_83">
<rect width="234" height="333" fill="white"/>
</clipPath>
</defs>
</svg>
