<svg width="234" height="333" viewBox="0 0 234 333" fill="none" xmlns="http://www.w3.org/2000/svg">
<g clip-path="url(#clip0_9_184)">
<path d="M224.703 0.37793H9.29715C4.37122 0.37793 0.37796 4.38307 0.37796 9.32367V323.676C0.37796 328.617 4.37122 332.622 9.29715 332.622H224.703C229.629 332.622 233.622 328.617 233.622 323.676V9.32367C233.622 4.38307 229.629 0.37793 224.703 0.37793Z" fill="black" stroke="#808080" stroke-width="0.755906"/>
<path d="M32 49H24.5463L14.3536 32.1312V49H8V11H14.3536V24.0714L23.3115 11H30.8775L19.3377 27.9463L32 49Z" fill="#FF0000"/>
<path d="M175 243H139.284L90.4443 175.081V243H60V90H90.4443V142.63L133.368 90H169.621L114.326 158.231L175 243Z" fill="#FF0000"/>
<path d="M20.4037 79.891C19.5193 77.9924 18.3777 76.2182 17.0213 74.6345C16.1465 73.6132 15.185 72.6729 14.2108 71.7495C13.4499 71.0283 12.6755 70.3109 12.0528 69.4632C11.6322 68.8905 11.2812 68.2533 11.114 67.5587C10.8111 66.3007 11.1407 64.9521 11.7622 63.822C12.1263 63.1602 12.5921 62.5515 13.1658 62.0676C14.0183 61.3488 15.1305 60.919 16.2335 61.0128C17.245 61.0988 18.191 61.6154 18.9291 62.3249C19.5824 62.9528 20.0913 63.7356 20.4145 64.5932C20.7379 63.7356 21.2467 62.9528 21.9 62.3249C22.6381 61.6154 23.5841 61.0988 24.5956 61.0128C25.6986 60.919 26.8108 61.3488 27.6633 62.0676C28.2371 62.5515 28.7028 63.1602 29.0669 63.822C29.6885 64.9521 30.018 66.3007 29.7151 67.5587C29.5479 68.2533 29.1969 68.8905 28.7763 69.4632C28.1537 70.3109 27.3792 71.0283 26.6183 71.7495C25.6442 72.6729 24.6826 73.6132 23.8078 74.6345C22.4515 76.2182 21.3098 77.9924 20.4254 79.891" fill="#FF0000"/>
</g>
<defs>
<clipPath id="clip0_9_184">
<rect width="234" height="333" fill="white"/>
</clipPath>
</defs>
</svg>
