<svg width="234" height="333" viewBox="0 0 234 333" fill="none" xmlns="http://www.w3.org/2000/svg">
<g clip-path="url(#clip0_5_17)">
<path d="M224.703 0.37793H9.29712C4.37119 0.37793 0.37793 4.38307 0.37793 9.32367V323.676C0.37793 328.617 4.37119 332.622 9.29712 332.622H224.703C229.629 332.622 233.622 328.617 233.622 323.676V9.32367C233.622 4.38307 229.629 0.37793 224.703 0.37793Z" fill="#1B1B1B" stroke="#808080" stroke-width="0.755906"/>
<path d="M23.4037 76.7064C22.5193 74.8078 21.3777 73.0337 20.0213 71.45C19.1465 70.4286 18.185 69.4883 17.2108 68.5649C16.4499 67.8437 15.6754 67.1264 15.0528 66.2787C14.6322 65.7059 14.2812 65.0688 14.114 64.3742C13.8111 63.1161 14.1407 61.7675 14.7622 60.6374C15.1263 59.9756 15.5921 59.3669 16.1658 58.8831C17.0183 58.1642 18.1305 57.7344 19.2335 57.8282C20.2451 57.9142 21.191 58.4308 21.9291 59.1403C22.5824 59.7682 23.0912 60.5509 23.4146 61.4086C23.7379 60.5509 24.2467 59.7682 24.9 59.1403C25.6382 58.4308 26.5841 57.9142 27.5956 57.8282C28.6986 57.7344 29.8108 58.1642 30.6633 58.8831C31.2371 59.3669 31.7028 59.9756 32.0669 60.6374C32.6885 61.7675 33.018 63.1161 32.7151 64.3742C32.5479 65.0688 32.1969 65.7059 31.7763 66.2787C31.1537 67.1264 30.3792 67.8437 29.6183 68.5649C28.6442 69.4883 27.6826 70.4286 26.8079 71.45C25.4514 73.0337 24.3098 74.8078 23.4254 76.7064" fill="#FF0000"/>
<path d="M117.098 241C125.083 226.025 135.39 212.031 147.637 199.54C155.534 191.485 164.216 184.068 173.011 176.785C179.881 171.096 186.873 165.438 192.494 158.752C196.292 154.235 199.461 149.209 200.971 143.731C203.705 133.808 200.73 123.171 195.118 114.258C191.831 109.038 187.626 104.237 182.446 100.421C174.749 94.7509 164.707 91.3607 154.749 92.1008C145.616 92.7794 137.076 96.854 130.411 102.45C124.513 107.403 119.919 113.576 117 120.341C114.081 113.576 109.487 107.403 103.589 102.45C96.9242 96.854 88.3838 92.7794 79.2513 92.1008C69.2928 91.3607 59.2509 94.7509 51.5543 100.421C46.3742 104.237 42.1688 109.038 38.8819 114.258C33.2695 123.171 30.2946 133.808 33.0292 143.731C34.539 149.209 37.7081 154.235 41.5058 158.752C47.127 165.438 54.1191 171.096 60.9892 176.785C69.7843 184.068 78.4657 191.485 86.3635 199.54C98.6099 212.031 108.917 226.025 116.902 241" fill="#FF0000"/>
<path d="M31.7727 38.0946L30.8782 45.8154H7.79095C8.14552 41.386 9.78944 37.4731 12.7227 34.0766L20.5554 26.8285C23.2792 24.2724 24.6411 21.7076 24.6411 19.134C24.6411 17.4183 24.1898 16.0527 23.2872 15.0372C22.4008 14.0043 21.1759 13.4879 19.6126 13.4879C17.8075 13.4879 16.4618 14.0131 15.5754 15.0635C14.9952 15.7638 14.5519 16.8405 14.2457 18.2936C13.9395 19.8343 13.6978 20.7272 13.5205 20.9723C13.2626 21.0599 12.9644 21.1036 12.626 21.1036H9.57992C9.22535 21.1036 8.91913 21.0248 8.66126 20.8673C8.54844 20.4996 8.49203 20.0882 8.49203 19.633C8.49203 15.9739 9.59603 13.0677 11.804 10.9143C13.9153 8.8484 16.6632 7.81543 20.0478 7.81543C23.1905 7.81543 25.7612 8.72583 27.7596 10.5466C29.8871 12.4724 30.9508 15.116 30.9508 18.4775C30.9508 21.7864 29.7742 24.8152 27.4212 27.5639C26.5992 28.5443 24.2623 30.6365 20.4104 33.8403C17.6061 36.2039 15.8816 38.331 15.2369 40.2218H26.5025L26.6959 37.8583C26.8732 37.018 27.3487 36.5978 28.1223 36.5978H30.5398C31.4746 36.5978 31.8855 37.0968 31.7727 38.0947V38.0946Z" fill="#FF0000"/>
</g>
<defs>
<clipPath id="clip0_5_17">
<rect width="234" height="333" fill="white"/>
</clipPath>
</defs>
</svg>
