<svg width="234" height="333" viewBox="0 0 234 333" fill="none" xmlns="http://www.w3.org/2000/svg">
<g clip-path="url(#clip0_8_56)">
<path d="M224.703 0.37793H9.29712C4.37119 0.37793 0.37793 4.38307 0.37793 9.32367V323.676C0.37793 328.617 4.37119 332.622 9.29712 332.622H224.703C229.629 332.622 233.622 328.617 233.622 323.676V9.32367C233.622 4.38307 229.629 0.37793 224.703 0.37793Z" fill="#1B1B1B" stroke="#808080" stroke-width="0.755906"/>
<path d="M21.4037 76.891C20.5193 74.9924 19.3777 73.2182 18.0213 71.6345C17.1465 70.6132 16.185 69.6728 15.2108 68.7495C14.4499 68.0282 13.6754 67.3109 13.0528 66.4632C12.6322 65.8905 12.2812 65.2533 12.114 64.5587C11.8111 63.3007 12.1407 61.9521 12.7622 60.822C13.1263 60.1602 13.5921 59.5515 14.1658 59.0677C15.0183 58.3488 16.1305 57.919 17.2335 58.0128C18.2451 58.0988 19.191 58.6154 19.9291 59.3249C20.5824 59.9528 21.0912 60.7355 21.4146 61.5932C21.7379 60.7355 22.2467 59.9528 22.9 59.3249C23.6382 58.6154 24.5841 58.0988 25.5956 58.0128C26.6986 57.919 27.8108 58.3488 28.6633 59.0677C29.2371 59.5515 29.7028 60.1602 30.0669 60.822C30.6885 61.9521 31.018 63.3007 30.7151 64.5587C30.5479 65.2533 30.1969 65.8905 29.7763 66.4632C29.1537 67.3109 28.3792 68.0282 27.6183 68.7495C26.6442 69.6728 25.6826 70.6132 24.8079 71.6345C23.4514 73.2182 22.3098 74.9924 21.4254 76.891" fill="#FF0000"/>
<path d="M33 15.2992L22.8792 46.7751C22.6107 47.5917 21.9306 48 20.8389 48H16.8658C16.0425 48 15.6309 47.7426 15.6309 47.2277C15.6309 46.7307 17.3221 41.7066 20.7047 32.1556C22.6734 26.6522 24.6331 21.1577 26.5839 15.6721H14.6913C14.6376 16.4532 14.4765 17.5893 14.2081 19.0806C13.9575 19.2404 13.689 19.3203 13.4027 19.3203H10.2886C9.42953 19.3203 9 19.0096 9 18.3883C9 18.0865 9.25951 15.2904 9.77852 10H33V15.2992Z" fill="#FF0000"/>
<path d="M117.098 241C125.083 226.025 135.39 212.031 147.637 199.54C155.534 191.485 164.216 184.068 173.011 176.785C179.881 171.096 186.873 165.438 192.494 158.752C196.292 154.235 199.461 149.209 200.971 143.731C203.705 133.808 200.73 123.171 195.118 114.258C191.831 109.038 187.626 104.237 182.446 100.421C174.749 94.7508 164.707 91.3607 154.749 92.1008C145.616 92.7794 137.076 96.854 130.411 102.45C124.513 107.403 119.919 113.576 117 120.341C114.081 113.576 109.487 107.403 103.589 102.45C96.9242 96.854 88.3838 92.7794 79.2513 92.1008C69.2928 91.3607 59.2509 94.7508 51.5543 100.421C46.3742 104.237 42.1688 109.038 38.8819 114.258C33.2695 123.171 30.2946 133.808 33.0292 143.731C34.539 149.209 37.7081 154.235 41.5058 158.752C47.127 165.438 54.1191 171.096 60.9892 176.785C69.7843 184.068 78.4657 191.485 86.3635 199.54C98.6099 212.031 108.917 226.025 116.902 241" fill="#FF0000"/>
</g>
<defs>
<clipPath id="clip0_8_56">
<rect width="234" height="333" fill="white"/>
</clipPath>
</defs>
</svg>
