<svg width="234" height="333" viewBox="0 0 234 333" fill="none" xmlns="http://www.w3.org/2000/svg">
<g clip-path="url(#clip0_9_204)">
<path d="M224.703 0.37793H9.29712C4.37119 0.37793 0.37793 4.38307 0.37793 9.32367V323.676C0.37793 328.617 4.37119 332.622 9.29712 332.622H224.703C229.629 332.622 233.622 328.617 233.622 323.676V9.32367C233.622 4.38307 229.629 0.37793 224.703 0.37793Z" fill="#1B1B1B" stroke="#808080" stroke-width="0.755906"/>
<path d="M196 243H163.218L150.381 227.267C139.783 232.794 127.967 235.557 114.933 235.557C93.4727 235.557 75.4358 228.554 60.822 214.548C46.274 200.479 39 183.207 39 162.732C39 149.605 42.3243 137.483 48.973 126.366C55.6216 115.249 64.9034 106.393 76.8182 99.7978C88.5356 93.2658 101.142 90 114.636 90C135.701 90 153.508 97.16 168.056 111.48C182.604 125.8 189.878 143.041 189.878 163.202C189.878 181.982 183.493 198.186 170.722 211.816L196 243ZM162.23 163.014C162.23 150.076 157.721 139.021 148.703 129.851C139.487 120.493 128.131 115.814 114.636 115.814C100.615 115.814 89.1281 120.367 80.1755 129.475C71.2887 138.519 66.8453 149.762 66.8453 163.202C66.8453 178.528 72.6052 190.65 84.1252 199.568C93.1436 206.54 103.38 210.026 114.834 210.026C121.417 210.026 127.605 208.801 133.397 206.352L107.428 174.414H140.408L153.442 190.524C159.301 182.233 162.23 173.063 162.23 163.014V163.014Z" fill="#FF0000"/>
<path d="M31.791 45.8153H26.7796L24.8174 41.9077C23.1972 43.2804 21.391 43.9667 19.3985 43.9667C16.118 43.9667 13.3608 42.2274 11.1268 38.7487C8.9029 35.2545 7.79095 30.9647 7.79095 25.8794C7.79095 22.6191 8.29913 19.6084 9.31548 16.8473C10.3318 14.0862 11.7507 11.8867 13.5721 10.2488C15.3633 8.62643 17.2903 7.81531 19.3532 7.81531C22.5733 7.81531 25.2954 9.59362 27.5193 13.1503C29.7432 16.7069 30.8551 20.9889 30.8551 25.9963C30.8551 30.6605 29.879 34.6851 27.9268 38.0702L31.791 45.8153ZM26.6287 25.9495C26.6287 22.736 25.9394 19.9905 24.5608 17.713C23.152 15.3887 21.4161 14.2266 19.3532 14.2266C17.2098 14.2266 15.4538 15.3576 14.0853 17.6195C12.7268 19.8658 12.0476 22.658 12.0476 25.9963C12.0476 29.8025 12.9281 32.8133 14.6891 35.0284C16.0677 36.7599 17.6325 37.6256 19.3834 37.6256C20.3897 37.6256 21.3356 37.3215 22.2211 36.7131L18.2513 28.7808H23.2928L25.2853 32.782C26.1809 30.7229 26.6287 28.4454 26.6287 25.9495V25.9495Z" fill="#FF0000"/>
<path d="M20.4037 78.891C19.5193 76.9924 18.3777 75.2182 17.0213 73.6345C16.1465 72.6132 15.185 71.6728 14.2108 70.7495C13.4499 70.0282 12.6755 69.3109 12.0528 68.4632C11.6322 67.8905 11.2812 67.2533 11.114 66.5587C10.8111 65.3007 11.1407 63.9521 11.7622 62.822C12.1263 62.1602 12.5921 61.5515 13.1658 61.0677C14.0183 60.3488 15.1305 59.919 16.2335 60.0128C17.245 60.0988 18.191 60.6154 18.9291 61.3249C19.5824 61.9528 20.0913 62.7356 20.4146 63.5932C20.7379 62.7356 21.2467 61.9528 21.9 61.3249C22.6381 60.6154 23.5841 60.0988 24.5956 60.0128C25.6986 59.919 26.8108 60.3488 27.6633 61.0677C28.2371 61.5515 28.7028 62.1602 29.0669 62.822C29.6885 63.9521 30.018 65.3007 29.7151 66.5587C29.5479 67.2533 29.1969 67.8905 28.7763 68.4632C28.1537 69.3109 27.3792 70.0282 26.6183 70.7495C25.6442 71.6728 24.6826 72.6132 23.8078 73.6345C22.4515 75.2182 21.3098 76.9924 20.4254 78.891" fill="#FF0000"/>
</g>
<defs>
<clipPath id="clip0_9_204">
<rect width="234" height="333" fill="white"/>
</clipPath>
</defs>
</svg>
