<svg width="234" height="333" viewBox="0 0 234 333" fill="none" xmlns="http://www.w3.org/2000/svg">
<g clip-path="url(#clip0_5_48)">
<path d="M224.703 0.37793H9.29714C4.37121 0.37793 0.377953 4.38307 0.377953 9.32367V323.676C0.377953 328.617 4.37121 332.622 9.29714 332.622H224.703C229.629 332.622 233.622 328.617 233.622 323.676V9.32367C233.622 4.38307 229.629 0.37793 224.703 0.37793Z" fill="black" stroke="#808080" stroke-width="0.755906"/>
<path d="M23.4037 76.7063C22.5193 74.8077 21.3777 73.0336 20.0213 71.4499C19.1465 70.4285 18.185 69.4881 17.2108 68.5648C16.4499 67.8436 15.6754 67.1262 15.0528 66.2785C14.6322 65.7058 14.2812 65.0686 14.114 64.3741C13.8111 63.116 14.1407 61.7674 14.7622 60.6373C15.1263 59.9755 15.5921 59.3668 16.1658 58.883C17.0183 58.1641 18.1305 57.7343 19.2335 57.8281C20.2451 57.9141 21.191 58.4307 21.9291 59.1402C22.5824 59.7681 23.0912 60.5508 23.4146 61.4085C23.7379 60.5508 24.2467 59.7681 24.9 59.1402C25.6382 58.4307 26.5841 57.9141 27.5956 57.8281C28.6986 57.7343 29.8108 58.1641 30.6633 58.883C31.2371 59.3668 31.7028 59.9755 32.0669 60.6373C32.6885 61.7674 33.018 63.116 32.7151 64.3741C32.5479 65.0686 32.1969 65.7058 31.7763 66.2785C31.1537 67.1262 30.3792 67.8436 29.6183 68.5648C28.6442 69.4881 27.6826 70.4285 26.8079 71.4499C25.4514 73.0336 24.3098 74.8077 23.4254 76.7063" fill="#FF0000"/>
<path d="M70.4649 167C67.5997 161.271 63.9012 155.918 59.5069 151.14C56.673 148.058 53.5579 145.221 50.402 142.435C47.9368 140.258 45.4279 138.094 43.4109 135.536C42.0482 133.808 40.911 131.886 40.3693 129.79C39.3881 125.994 40.4555 121.925 42.4694 118.515C43.6488 116.518 45.1578 114.681 47.0165 113.221C49.7782 111.052 53.3815 109.755 56.9548 110.039C60.2318 110.298 63.2963 111.857 65.6877 113.998C67.8041 115.892 69.4526 118.254 70.5 120.842C71.5474 118.254 73.1959 115.892 75.3123 113.998C77.7037 111.857 80.7682 110.298 84.0451 110.039C87.6185 109.755 91.2217 111.052 93.9834 113.221C95.8422 114.681 97.3512 116.518 98.5306 118.515C100.544 121.925 101.612 125.994 100.631 129.79C100.089 131.886 98.9518 133.808 97.5891 135.536C95.5721 138.094 93.0631 140.258 90.598 142.435C87.4421 145.221 84.327 148.058 81.4931 151.14C77.0988 155.918 73.4003 161.271 70.5351 167" fill="#FF0000"/>
<path d="M165.465 167C162.6 161.271 158.901 155.918 154.507 151.14C151.673 148.058 148.558 145.221 145.402 142.435C142.937 140.258 140.428 138.094 138.411 135.536C137.048 133.808 135.911 131.886 135.369 129.79C134.388 125.994 135.456 121.925 137.469 118.515C138.649 116.518 140.158 114.681 142.017 113.221C144.778 111.052 148.381 109.755 151.955 110.039C155.232 110.298 158.296 111.857 160.688 113.998C162.804 115.892 164.453 118.254 165.5 120.842C166.547 118.254 168.196 115.892 170.312 113.998C172.704 111.857 175.768 110.298 179.045 110.039C182.618 109.755 186.222 111.052 188.983 113.221C190.842 114.681 192.351 116.518 193.531 118.515C195.544 121.925 196.612 125.994 195.631 129.79C195.089 131.886 193.952 133.808 192.589 135.536C190.572 138.094 188.063 140.258 185.598 142.435C182.442 145.221 179.327 148.058 176.493 151.14C172.099 155.918 168.4 161.271 165.535 167" fill="#FF0000"/>
<path d="M70.4649 167C67.5997 172.628 63.9012 177.888 59.5069 182.582C56.673 185.61 53.5579 188.397 50.402 191.134C47.9368 193.273 45.4279 195.399 43.4109 197.912C42.0482 199.61 40.911 201.498 40.3693 203.558C39.3881 207.287 40.4555 211.285 42.4694 214.635C43.6488 216.597 45.1578 218.401 47.0165 219.835C49.7782 221.966 53.3815 223.24 56.9549 222.962C60.2318 222.707 63.2963 221.176 65.6877 219.072C67.8041 217.211 69.4526 214.891 70.5 212.348C71.5474 214.891 73.1959 217.211 75.3123 219.072C77.7037 221.176 80.7682 222.707 84.0451 222.962C87.6185 223.24 91.2217 221.966 93.9834 219.835C95.8422 218.401 97.3512 216.597 98.5306 214.635C100.544 211.285 101.612 207.287 100.631 203.558C100.089 201.498 98.9518 199.61 97.5891 197.912C95.5721 195.399 93.0631 193.273 90.598 191.134C87.4421 188.397 84.327 185.61 81.4931 182.582C77.0988 177.888 73.4003 172.628 70.5351 167" fill="#FF0000"/>
<path d="M165.465 167C162.6 172.628 158.901 177.888 154.507 182.582C151.673 185.61 148.558 188.397 145.402 191.134C142.937 193.273 140.428 195.399 138.411 197.912C137.048 199.61 135.911 201.498 135.369 203.558C134.388 207.287 135.456 211.285 137.469 214.635C138.649 216.597 140.158 218.401 142.017 219.835C144.778 221.966 148.382 223.24 151.955 222.962C155.232 222.707 158.296 221.176 160.688 219.072C162.804 217.211 164.453 214.891 165.5 212.348C166.547 214.891 168.196 217.211 170.312 219.072C172.704 221.176 175.768 222.707 179.045 222.962C182.618 223.24 186.222 221.966 188.983 219.835C190.842 218.401 192.351 216.597 193.531 214.635C195.544 211.285 196.612 207.287 195.631 203.558C195.089 201.498 193.952 199.61 192.589 197.912C190.572 195.399 188.063 193.273 185.598 191.134C182.442 188.397 179.327 185.61 176.493 182.582C172.099 177.888 168.4 172.628 165.535 167" fill="#FF0000"/>
<path d="M31.791 44.4713C31.791 44.8403 31.7324 45.2005 31.6152 45.5519C31.3514 45.7275 31.073 45.8153 30.78 45.8153H16.6701C15.5859 45.8153 15.0437 45.1565 15.0437 43.8389C15.0437 43.6281 15.0584 43.2592 15.0877 42.7322C15.117 42.2051 15.1317 41.801 15.1317 41.5199C15.1317 40.905 15.2415 40.5097 15.4613 40.3341C15.6225 40.2111 15.9815 40.1496 16.5383 40.1496H22.0328V36.0913H9.70309C8.42836 36.0913 7.791 35.3799 7.791 33.9568C7.791 33.7109 7.81298 33.2629 7.85693 32.6129C7.90089 31.9453 7.92287 31.4182 7.92287 31.0317C7.92287 30.4343 8.20858 29.6877 8.78001 28.7917L21.4833 8.76398C21.8789 8.13152 22.3771 7.81531 22.9778 7.81531H25.8789C26.5676 7.81531 26.9119 8.27203 26.9119 9.18558V30.6891C27.4394 30.6891 28.0401 30.6716 28.7141 30.6365C29.4027 30.6013 29.8423 30.5838 30.0328 30.5838C30.824 30.5838 31.3148 30.8209 31.5053 31.2953C31.6958 31.7521 31.791 32.8939 31.791 34.721C31.791 35.0548 31.769 35.3096 31.7251 35.4853C31.6372 35.8893 31.3002 36.0914 30.7141 36.0914H26.9119V40.1496C27.454 40.1496 28.0694 40.132 28.758 40.0969C29.4467 40.0618 29.8789 40.0442 30.0547 40.0442C30.8899 40.0442 31.3954 40.299 31.5712 40.8085C31.7177 41.2302 31.791 42.451 31.791 44.4713ZM22.1207 16.2744C21.3148 17.7501 18.3404 22.5551 13.1976 30.6891H22.0328C22.0328 29.758 22.0181 28.1593 21.9888 25.893C21.9448 23.8375 21.9302 22.23 21.9448 21.0705C21.9595 19.3137 22.0181 17.715 22.1207 16.2744Z" fill="#FF0000"/>
</g>
<defs>
<clipPath id="clip0_5_48">
<rect width="234" height="333" fill="white"/>
</clipPath>
</defs>
</svg>
