<svg width="234" height="333" viewBox="0 0 234 333" fill="none" xmlns="http://www.w3.org/2000/svg">
<g clip-path="url(#clip0_8_161)">
<path d="M224.703 0.37793H9.29712C4.37119 0.37793 0.37793 4.38307 0.37793 9.32367V323.676C0.37793 328.617 4.37119 332.622 9.29712 332.622H224.703C229.629 332.622 233.622 328.617 233.622 323.676V9.32367C233.622 4.38307 229.629 0.37793 224.703 0.37793Z" fill="#1B1B1B" stroke="#808080" stroke-width="0.755906"/>
<path d="M167 189.024C167 201.334 166.193 210.263 164.579 215.809C161.776 225.482 155.83 232.651 146.741 237.318C139.521 241.106 130.857 243 120.749 243C100.108 243 82.5251 235.796 68 221.389L93.7374 202.213C103.336 210.871 112.042 215.2 119.857 215.2C125.208 215.2 128.649 212.562 130.178 207.286C130.857 204.987 131.197 200.692 131.197 194.401V90H167V189.024Z" fill="#FF0000"/>
<path d="M27 32.5942C27 35.6517 26.8044 37.8692 26.4131 39.2467C25.7336 41.649 24.2922 43.4297 22.0888 44.5888C20.3385 45.5296 18.2381 46 15.7876 46C10.7838 46 6.52124 44.2109 3 40.6326L9.23938 35.87C11.5663 38.0203 13.677 39.0955 15.5714 39.0955C16.8687 39.0955 17.7027 38.4403 18.0734 37.1299C18.2381 36.5588 18.3205 35.4921 18.3205 33.9297V8H27V32.5942Z" fill="#FF0000"/>
<path d="M15.4037 78.891C14.5193 76.9924 13.3777 75.2182 12.0213 73.6345C11.1465 72.6132 10.185 71.6729 9.21082 70.7495C8.4499 70.0283 7.67546 69.3109 7.05284 68.4632C6.6322 67.8905 6.28119 67.2533 6.11399 66.5587C5.81109 65.3007 6.14067 63.9521 6.76222 62.822C7.12628 62.1602 7.59208 61.5515 8.1658 61.0676C9.01829 60.3488 10.1305 59.919 11.2335 60.0128C12.245 60.0988 13.191 60.6154 13.9291 61.3249C14.5824 61.9528 15.0913 62.7356 15.4145 63.5932C15.7379 62.7356 16.2467 61.9528 16.9 61.3249C17.6381 60.6154 18.5841 60.0988 19.5956 60.0128C20.6986 59.919 21.8108 60.3488 22.6633 61.0676C23.2371 61.5515 23.7028 62.1602 24.0669 62.822C24.6885 63.9521 25.018 65.3007 24.7151 66.5587C24.5479 67.2533 24.1969 67.8905 23.7763 68.4632C23.1537 69.3109 22.3792 70.0283 21.6183 70.7495C20.6442 71.6729 19.6826 72.6132 18.8078 73.6345C17.4515 75.2182 16.3098 76.9924 15.4254 78.891" fill="#FF0000"/>
</g>
<defs>
<clipPath id="clip0_8_161">
<rect width="234" height="333" fill="white"/>
</clipPath>
</defs>
</svg>
