<svg width="234" height="333" viewBox="0 0 234 333" fill="none" xmlns="http://www.w3.org/2000/svg">
<g clip-path="url(#clip0_8_98)">
<path d="M224.325 1H8.91919C3.99326 1 0 5.00514 0 9.94574V324.298C0 329.239 3.99326 333.244 8.91919 333.244H224.325C229.251 333.244 233.244 329.239 233.244 324.298V9.94574C233.244 5.00514 229.251 1 224.325 1Z" fill="#1B1B1B" stroke="#808080" stroke-width="0.755906"/>
<path d="M229 352.443C229 357.848 228.106 362.243 226.317 365.628C224.078 369.876 220.629 372 215.973 372C213.25 372 211.002 371.422 209.23 370.265C207.087 368.848 206.015 366.759 206.015 363.996C206.015 363.392 206.41 363.089 207.199 363.089H210.776C211.244 363.089 211.638 363.374 211.961 363.944C212.444 364.79 212.815 365.334 213.073 365.576C213.733 366.146 214.7 366.431 215.973 366.431C218.116 366.431 219.783 365.36 220.976 363.219C221.91 361.492 222.434 359.368 222.547 356.847C220.662 358.453 218.406 359.256 215.779 359.256C212.444 359.256 209.785 357.995 207.804 355.474C205.935 353.108 205 350.103 205 346.459C205 342.626 206.023 339.595 208.069 337.367C210.116 335.122 212.919 334 216.48 334C224.827 334 229 340.148 229 352.443ZM222.402 346.615C222.402 344.733 221.926 343.135 220.976 341.823C219.928 340.372 218.559 339.647 216.867 339.647C215.127 339.647 213.741 340.355 212.71 341.771C211.775 343.066 211.308 344.681 211.308 346.615C211.308 348.584 211.767 350.207 212.686 351.485C213.685 352.883 215.079 353.583 216.867 353.583C218.639 353.583 220.025 352.875 221.024 351.459C221.943 350.181 222.402 348.566 222.402 346.615Z" fill="#1B1B1B" stroke="#808080" stroke-width="0.755906"/>
<path d="M214.404 250C213.519 251.899 212.378 253.673 211.021 255.257C210.147 256.278 209.185 257.218 208.211 258.142C207.45 258.863 206.675 259.58 206.053 260.428C205.632 261.001 205.281 261.638 205.114 262.332C204.811 263.59 205.141 264.939 205.762 266.069C206.126 266.731 206.592 267.339 207.166 267.823C208.018 268.542 209.131 268.972 210.234 268.878C211.245 268.792 212.191 268.276 212.929 267.566C213.582 266.938 214.091 266.155 214.415 265.298C214.738 266.155 215.247 266.938 215.9 267.566C216.638 268.276 217.584 268.792 218.596 268.878C219.699 268.972 220.811 268.542 221.663 267.823C222.237 267.339 222.703 266.731 223.067 266.069C223.689 264.939 224.018 263.59 223.715 262.332C223.548 261.638 223.197 261.001 222.776 260.428C222.154 259.58 221.379 258.863 220.618 258.142C219.644 257.218 218.683 256.278 217.808 255.257C216.451 253.673 215.31 251.899 214.425 250" fill="#FF0000"/>
<path d="M20.4037 76.891C19.5193 74.9924 18.3777 73.2182 17.0213 71.6345C16.1465 70.6132 15.185 69.6729 14.2108 68.7495C13.4499 68.0283 12.6755 67.3109 12.0528 66.4632C11.6322 65.8905 11.2812 65.2533 11.114 64.5587C10.8111 63.3007 11.1406 61.9521 11.7622 60.822C12.1263 60.1602 12.5921 59.5515 13.1658 59.0676C14.0183 58.3488 15.1305 57.919 16.2335 58.0128C17.2451 58.0988 18.191 58.6154 18.9291 59.3249C19.5824 59.9528 20.0913 60.7356 20.4146 61.5932C20.7379 60.7356 21.2467 59.9528 21.9 59.3249C22.6382 58.6154 23.5841 58.0988 24.5956 58.0128C25.6986 57.919 26.8108 58.3488 27.6633 59.0676C28.2371 59.5515 28.7028 60.1602 29.0669 60.822C29.6885 61.9521 30.018 63.3007 29.7151 64.5587C29.5479 65.2533 29.1969 65.8905 28.7763 66.4632C28.1537 67.3109 27.3792 68.0283 26.6183 68.7495C25.6442 69.6729 24.6826 70.6132 23.8079 71.6345C22.4515 73.2182 21.3098 74.9924 20.4254 76.891" fill="#FF0000"/>
<path d="M32 25.4431C32 30.8482 31.1057 35.2432 29.3172 38.6279C27.0775 42.876 23.6294 45 18.9728 45C16.2497 45 14.002 44.4215 12.2296 43.2645C10.0866 41.8485 9.01511 39.759 9.01511 36.996C9.01511 36.3916 9.40987 36.0893 10.1994 36.0893H13.7764C14.2437 36.0893 14.6385 36.3742 14.9607 36.9441C15.4441 37.7903 15.8147 38.3343 16.0725 38.5761C16.7331 39.1459 17.6999 39.4308 18.9728 39.4308C21.1158 39.4308 22.7835 38.3602 23.9758 36.2189C24.9104 34.492 25.434 32.3679 25.5468 29.8466C23.6616 31.4526 21.4058 32.2556 18.7795 32.2556C15.4441 32.2556 12.7855 30.9951 10.8036 28.4738C8.93454 26.108 8 23.1032 8 19.4595C8 15.6258 9.02316 12.5951 11.0695 10.3674C13.1158 8.1225 15.9194 7 19.4804 7C27.8268 7 32 13.1477 32 25.4431ZM25.4018 19.6149C25.4018 17.7326 24.9265 16.1352 23.9758 14.8228C22.9285 13.3722 21.5589 12.6469 19.8671 12.6469C18.1269 12.6469 16.7412 13.355 15.71 14.771C14.7754 16.0661 14.3082 17.6808 14.3082 19.6149C14.3082 21.5836 14.7674 23.2068 15.6858 24.4847C16.6848 25.8835 18.0785 26.5829 19.8671 26.5829C21.6395 26.5829 23.0252 25.8748 24.0242 24.4588C24.9426 23.1809 25.4018 21.5663 25.4018 19.6149Z" fill="#FF0000"/>
<path d="M117.098 241C125.083 226.025 135.39 212.031 147.637 199.54C155.534 191.485 164.216 184.068 173.011 176.785C179.881 171.096 186.873 165.438 192.494 158.752C196.292 154.235 199.461 149.209 200.971 143.731C203.705 133.808 200.73 123.171 195.118 114.258C191.831 109.038 187.626 104.237 182.446 100.421C174.749 94.7509 164.707 91.3607 154.749 92.1008C145.616 92.7794 137.076 96.854 130.411 102.45C124.513 107.403 119.919 113.576 117 120.341C114.081 113.576 109.487 107.403 103.589 102.45C96.9242 96.854 88.3838 92.7794 79.2513 92.1008C69.2928 91.3607 59.2509 94.7509 51.5543 100.421C46.3742 104.237 42.1688 109.038 38.8819 114.258C33.2695 123.171 30.2946 133.808 33.0292 143.731C34.539 149.209 37.7081 154.235 41.5058 158.752C47.127 165.438 54.1191 171.096 60.9892 176.785C69.7843 184.068 78.4657 191.485 86.3635 199.54C98.6099 212.031 108.917 226.025 116.902 241" fill="#FF0000"/>
<path d="M202 304.557C202 299.152 202.894 294.757 204.683 291.372C206.922 287.124 210.371 285 215.027 285C217.75 285 219.998 285.578 221.77 286.735C223.913 288.152 224.985 290.241 224.985 293.004C224.985 293.608 224.59 293.911 223.801 293.911H220.224C219.756 293.911 219.362 293.626 219.039 293.056C218.556 292.21 218.185 291.666 217.927 291.424C217.267 290.854 216.3 290.569 215.027 290.569C212.884 290.569 211.217 291.64 210.024 293.781C209.09 295.508 208.566 297.632 208.453 300.153C210.338 298.547 212.594 297.744 215.221 297.744C218.556 297.744 221.215 299.005 223.196 301.526C225.065 303.892 226 306.897 226 310.541C226 314.374 224.977 317.405 222.931 319.633C220.884 321.878 218.081 323 214.52 323C206.173 323 202 316.852 202 304.557ZM208.598 310.385C208.598 312.267 209.074 313.865 210.024 315.177C211.072 316.628 212.441 317.353 214.133 317.353C215.873 317.353 217.259 316.645 218.29 315.229C219.225 313.934 219.692 312.319 219.692 310.385C219.692 308.416 219.233 306.793 218.314 305.515C217.315 304.117 215.921 303.417 214.133 303.417C212.361 303.417 210.975 304.125 209.976 305.541C209.057 306.819 208.598 308.434 208.598 310.385Z" fill="#FF0000"/>
</g>
<defs>
<clipPath id="clip0_8_98">
<rect width="234" height="333" fill="white"/>
</clipPath>
</defs>
</svg>
