<svg width="234" height="333" viewBox="0 0 234 333" fill="none" xmlns="http://www.w3.org/2000/svg">
<g clip-path="url(#clip0_8_40)">
<path d="M225.325 0H9.91919C4.99326 0 1 4.00514 1 8.94574V323.298C1 328.239 4.99326 332.244 9.91919 332.244H225.325C230.251 332.244 234.244 328.239 234.244 323.298V8.94574C234.244 4.00514 230.251 0 225.325 0Z" fill="black" stroke="#808080" stroke-width="0.755906"/>
<path d="M136 357.41C136 353.428 137.118 350.189 139.353 347.695C142.153 344.565 146.463 343 152.284 343C155.688 343 158.497 343.426 160.713 344.279C163.392 345.322 164.731 346.862 164.731 348.898C164.731 349.343 164.238 349.566 163.251 349.566H158.779C158.195 349.566 157.702 349.356 157.299 348.936C156.695 348.312 156.232 347.912 155.909 347.733C155.084 347.314 153.875 347.104 152.284 347.104C149.605 347.104 147.521 347.892 146.03 349.47C144.862 350.743 144.207 352.308 144.066 354.166C146.423 352.982 149.243 352.391 152.526 352.391C156.695 352.391 160.018 353.319 162.495 355.177C164.832 356.92 166 359.134 166 361.819C166 364.644 164.721 366.877 162.163 368.519C159.605 370.173 156.101 371 151.65 371C141.217 371 136 366.47 136 357.41ZM144.248 361.705C144.248 363.092 144.842 364.269 146.03 365.236C147.339 366.305 149.051 366.839 151.166 366.839C153.341 366.839 155.074 366.317 156.363 365.274C157.531 364.32 158.115 363.13 158.115 361.705C158.115 360.254 157.541 359.058 156.393 358.117C155.144 357.086 153.402 356.571 151.166 356.571C148.951 356.571 147.219 357.092 145.97 358.136C144.822 359.077 144.248 360.267 144.248 361.705Z" fill="#1B1B1B" stroke="#808080" stroke-width="0.755906"/>
<path d="M9 37.5569C9 32.1518 9.89426 27.7568 11.6828 24.3721C13.9225 20.124 17.3706 18 22.0272 18C24.7503 18 26.998 18.5785 28.7704 19.7355C30.9134 21.1515 31.9849 23.241 31.9849 26.004C31.9849 26.6084 31.5901 26.9107 30.8006 26.9107H27.2236C26.7563 26.9107 26.3615 26.6258 26.0393 26.0559C25.5559 25.2097 25.1853 24.6657 24.9275 24.4239C24.2669 23.8541 23.3001 23.5692 22.0272 23.5692C19.8842 23.5692 18.2165 24.6398 17.0242 26.7811C16.0896 28.508 15.566 30.6321 15.4532 33.1534C17.3384 31.5474 19.5942 30.7444 22.2205 30.7444C25.5559 30.7444 28.2145 32.0049 30.1964 34.5262C32.0655 36.892 33 39.8968 33 43.5405C33 47.3742 31.9768 50.4049 29.9305 52.6326C27.8842 54.8775 25.0806 56 21.5196 56C13.1732 56 9 49.8523 9 37.5569ZM15.5982 43.3851C15.5982 45.2674 16.0735 46.8648 17.0242 48.1772C18.0715 49.6278 19.4411 50.3531 21.1329 50.3531C22.8731 50.3531 24.2588 49.645 25.29 48.229C26.2246 46.9339 26.6918 45.3192 26.6918 43.3851C26.6918 41.4164 26.2326 39.7932 25.3142 38.5153C24.3152 37.1165 22.9215 36.4171 21.1329 36.4171C19.3605 36.4171 17.9748 37.1252 16.9758 38.5412C16.0574 39.8191 15.5982 41.4337 15.5982 43.3851Z" fill="#FF0000"/>
<path d="M224 297.443C224 302.848 223.106 307.243 221.317 310.628C219.078 314.876 215.629 317 210.973 317C208.25 317 206.002 316.422 204.23 315.265C202.087 313.848 201.015 311.759 201.015 308.996C201.015 308.392 201.41 308.089 202.199 308.089H205.776C206.244 308.089 206.638 308.374 206.961 308.944C207.444 309.79 207.815 310.334 208.073 310.576C208.733 311.146 209.7 311.431 210.973 311.431C213.116 311.431 214.783 310.36 215.976 308.219C216.91 306.492 217.434 304.368 217.547 301.847C215.662 303.453 213.406 304.256 210.779 304.256C207.444 304.256 204.785 302.995 202.804 300.474C200.935 298.108 200 295.103 200 291.459C200 287.626 201.023 284.595 203.069 282.367C205.116 280.122 207.919 279 211.48 279C219.827 279 224 285.148 224 297.443ZM217.402 291.615C217.402 289.733 216.926 288.135 215.976 286.823C214.928 285.372 213.559 284.647 211.867 284.647C210.127 284.647 208.741 285.355 207.71 286.771C206.775 288.066 206.308 289.681 206.308 291.615C206.308 293.584 206.767 295.207 207.686 296.485C208.685 297.883 210.079 298.583 211.867 298.583C213.639 298.583 215.025 297.875 216.024 296.459C216.943 295.181 217.402 293.566 217.402 291.615Z" fill="#FF0000"/>
<path d="M59 169.316C59 146.842 63.3223 128.568 71.9668 114.495C82.7919 96.8315 99.4579 88 121.965 88C135.126 88 145.99 90.4052 154.557 95.2159C164.915 101.104 170.094 109.792 170.094 121.28C170.094 123.793 168.186 125.05 164.37 125.05H147.081C144.822 125.05 142.914 123.865 141.357 121.496C139.02 117.977 137.229 115.715 135.983 114.71C132.79 112.341 128.117 111.156 121.965 111.156C111.607 111.156 103.547 115.608 97.7835 124.511C93.2666 131.691 90.7355 140.523 90.1904 151.006C99.3021 144.329 110.205 140.99 122.899 140.99C139.02 140.99 151.87 146.231 161.449 156.714C170.483 166.551 175 179.045 175 194.195C175 210.135 170.055 222.736 160.164 231.999C150.274 241.333 136.723 246 119.512 246C79.1705 246 59 220.438 59 169.316ZM90.8913 193.548C90.8913 201.375 93.1887 208.017 97.7835 213.474C102.846 219.505 109.465 222.521 117.643 222.521C126.053 222.521 132.751 219.577 137.735 213.689C142.252 208.304 144.511 201.59 144.511 193.548C144.511 185.363 142.291 178.614 137.852 173.3C133.024 167.484 126.287 164.577 117.643 164.577C109.076 164.577 102.378 167.52 97.5499 173.408C93.1108 178.722 90.8913 185.435 90.8913 193.548Z" fill="#FF0000"/>
<path d="M116.967 67C114.242 62.0753 110.726 57.4735 106.548 53.3656C103.853 50.7165 100.891 48.2773 97.8904 45.8823C95.5465 44.0115 93.1609 42.1509 91.2431 39.9521C89.9474 38.4666 88.8662 36.8139 88.3511 35.0122C87.4182 31.7491 88.4333 28.251 90.3479 25.3197C91.4694 23.6031 92.9041 22.0243 94.6714 20.7693C97.2973 18.9047 100.723 17.7898 104.121 18.0332C107.237 18.2562 110.151 19.5962 112.424 21.4364C114.437 23.0652 116.004 25.0955 117 27.32C117.996 25.0955 119.563 23.0652 121.576 21.4364C123.849 19.5962 126.763 18.2563 129.879 18.0332C133.277 17.7899 136.703 18.9047 139.329 20.7693C141.096 22.0243 142.531 23.6031 143.652 25.3197C145.567 28.251 146.582 31.7491 145.649 35.0122C145.134 36.8139 144.053 38.4666 142.757 39.9521C140.839 42.1509 138.453 44.0115 136.11 45.8823C133.109 48.2773 130.147 50.7165 127.452 53.3656C123.274 57.4735 119.758 62.0753 117.033 67" fill="#FF0000"/>
<path d="M116.967 268C114.242 272.925 110.726 277.527 106.548 281.634C103.853 284.284 100.891 286.723 97.8904 289.118C95.5465 290.988 93.1609 292.849 91.2431 295.048C89.9474 296.533 88.8662 298.186 88.3511 299.988C87.4182 303.251 88.4333 306.749 90.3479 309.68C91.4694 311.397 92.9041 312.976 94.6714 314.231C97.2973 316.095 100.723 317.21 104.121 316.967C107.237 316.744 110.151 315.404 112.424 313.564C114.437 311.935 116.004 309.905 117 307.68C117.996 309.905 119.563 311.935 121.576 313.564C123.849 315.404 126.763 316.744 129.879 316.967C133.277 317.21 136.703 316.095 139.329 314.231C141.096 312.976 142.531 311.397 143.652 309.68C145.567 306.749 146.582 303.251 145.649 299.988C145.134 298.186 144.053 296.533 142.757 295.048C140.839 292.849 138.453 290.988 136.11 289.118C133.109 286.723 130.147 284.284 127.452 281.634C123.274 277.527 119.758 272.925 117.033 268" fill="#FF0000"/>
</g>
<defs>
<clipPath id="clip0_8_40">
<rect width="234" height="333" fill="white"/>
</clipPath>
</defs>
</svg>
