<svg width="242" height="341" viewBox="0 0 242 341" fill="none" xmlns="http://www.w3.org/2000/svg">
<g clip-path="url(#clip0_5_32)" filter="url(#filter0_d_5_32)">
<path d="M228.703 0.37793H13.2971C8.37122 0.37793 4.37796 4.38307 4.37796 9.32367V323.676C4.37796 328.617 8.37122 332.622 13.2971 332.622H228.703C233.629 332.622 237.622 328.617 237.622 323.676V9.32367C237.622 4.38307 233.629 0.37793 228.703 0.37793Z" fill="#1B1B1B" stroke="#808080" stroke-width="0.755906"/>
<path d="M121.098 241C129.083 226.025 139.39 212.031 151.637 199.54C159.534 191.485 168.216 184.068 177.011 176.785C183.881 171.096 190.873 165.438 196.494 158.752C200.292 154.235 203.461 149.209 204.971 143.731C207.705 133.808 204.73 123.171 199.118 114.258C195.831 109.038 191.626 104.237 186.446 100.421C178.749 94.7509 168.707 91.3607 158.749 92.1008C149.616 92.7794 141.076 96.854 134.411 102.45C128.513 107.403 123.919 113.576 121 120.341C118.081 113.576 113.487 107.403 107.589 102.45C100.924 96.854 92.3838 92.7794 83.2513 92.1008C73.2928 91.3607 63.2509 94.7509 55.5543 100.421C50.3742 104.237 46.1688 109.038 42.8819 114.258C37.2695 123.171 34.2946 133.808 37.0292 143.731C38.539 149.209 41.7081 154.235 45.5058 158.752C51.127 165.438 58.1191 171.096 64.9892 176.785C73.7843 184.068 82.4657 191.485 90.3635 199.54C102.61 212.031 112.917 226.025 120.902 241" fill="#FF0000"/>
<path d="M27.4037 76.7063C26.5193 74.8077 25.3777 73.0336 24.0213 71.4499C23.1465 70.4285 22.185 69.4881 21.2108 68.5648C20.4499 67.8436 19.6754 67.1262 19.0528 66.2785C18.6322 65.7058 18.2812 65.0686 18.114 64.3741C17.8111 63.116 18.1407 61.7674 18.7622 60.6373C19.1263 59.9755 19.5921 59.3668 20.1658 58.883C21.0183 58.1641 22.1305 57.7343 23.2335 57.8281C24.2451 57.9141 25.191 58.4307 25.9291 59.1402C26.5824 59.7681 27.0912 60.5508 27.4146 61.4085C27.7379 60.5508 28.2467 59.7681 28.9 59.1402C29.6382 58.4307 30.5841 57.9141 31.5956 57.8281C32.6986 57.7343 33.8108 58.1641 34.6633 58.883C35.2371 59.3668 35.7028 59.9755 36.0669 60.6373C36.6885 61.7674 37.018 63.116 36.7151 64.3741C36.5479 65.0686 36.1969 65.7058 35.7763 66.2785C35.1537 67.1262 34.3792 67.8436 33.6183 68.5648C32.6442 69.4881 31.6826 70.4285 30.8079 71.4499C29.4514 73.0336 28.3098 74.8077 27.4254 76.7063" fill="#FF0000"/>
<path d="M35.791 35.0914C35.791 38.6143 34.5956 41.3254 32.2048 43.225C30.0481 44.9519 27.2226 45.8153 23.7283 45.8153C15.7701 45.8153 11.791 41.9298 11.791 34.1589C11.791 33.7962 11.8495 33.4508 11.9666 33.1227C12.2173 32.9673 12.5016 32.8896 12.8192 32.8896H16.0794C16.3971 32.8896 16.6897 32.9673 16.9572 33.1227C17.0408 33.3645 17.1076 33.6494 17.1578 33.9775C17.442 36.1189 18.0272 37.6731 18.9133 38.6402C19.8997 39.7108 21.4128 40.2462 23.4525 40.2462C25.1243 40.2462 26.4869 39.7799 27.5402 38.8474C28.6437 37.8458 29.1954 36.4988 29.1954 34.8064C29.1954 31.2145 27.2978 29.1077 23.5026 28.4861C23.0345 28.417 22.6834 28.3134 22.4493 28.1752C22.3156 27.8989 22.2487 26.5001 22.2487 23.9789C22.2487 23.6508 22.3239 23.34 22.4744 23.0464C23.7283 22.6665 24.9822 22.278 26.2362 21.8808C27.557 21.2591 28.2173 19.9553 28.2173 17.9694C28.2173 14.9646 26.512 13.4622 23.1014 13.4622C21.5298 13.4622 20.3009 13.8595 19.4148 14.6538C18.9467 15.0855 18.4619 15.8195 17.9603 16.8556C17.5925 17.6499 17.2247 18.0471 16.8568 18.0471H13.6217C12.8025 18.0471 12.3929 17.6671 12.3929 16.9073C12.3929 14.0234 13.488 11.744 15.6782 10.0689C17.651 8.5665 20.0752 7.81531 22.9509 7.81531C26.2612 7.81531 28.9613 8.53201 31.0512 9.96532C33.5089 11.6404 34.7377 14.1098 34.7377 17.3736C34.7377 21.3109 32.8568 23.9875 29.0951 25.4036C33.559 27.3549 35.791 30.5843 35.791 35.0914V35.0914Z" fill="#FF0000"/>
</g>
<defs>
<filter id="filter0_d_5_32" x="0" y="0" width="242" height="341" filterUnits="userSpaceOnUse" color-interpolation-filters="sRGB">
<feFlood flood-opacity="0" result="BackgroundImageFix"/>
<feColorMatrix in="SourceAlpha" type="matrix" values="0 0 0 0 0 0 0 0 0 0 0 0 0 0 0 0 0 0 127 0" result="hardAlpha"/>
<feOffset dy="4"/>
<feGaussianBlur stdDeviation="2"/>
<feComposite in2="hardAlpha" operator="out"/>
<feColorMatrix type="matrix" values="0 0 0 0 0 0 0 0 0 0 0 0 0 0 0 0 0 0 0.25 0"/>
<feBlend mode="normal" in2="BackgroundImageFix" result="effect1_dropShadow_5_32"/>
<feBlend mode="normal" in="SourceGraphic" in2="effect1_dropShadow_5_32" result="shape"/>
</filter>
<clipPath id="clip0_5_32">
<rect width="234" height="333" fill="white" transform="translate(4)"/>
</clipPath>
</defs>
</svg>
