<svg width="234" height="333" viewBox="0 0 234 333" fill="none" xmlns="http://www.w3.org/2000/svg">
<g clip-path="url(#clip0_8_76)">
<path d="M224.703 0.37793H9.29715C4.37122 0.37793 0.37796 4.38307 0.37796 9.32367V323.676C0.37796 328.617 4.37122 332.622 9.29715 332.622H224.703C229.629 332.622 233.622 328.617 233.622 323.676V9.32367C233.622 4.38307 229.629 0.37793 224.703 0.37793Z" fill="black" stroke="#808080" stroke-width="0.755906"/>
<path d="M20.4037 75.891C19.5193 73.9924 18.3777 72.2182 17.0213 70.6345C16.1465 69.6132 15.185 68.6728 14.2108 67.7495C13.4499 67.0282 12.6754 66.3109 12.0528 65.4632C11.6322 64.8905 11.2812 64.2533 11.114 63.5587C10.8111 62.3007 11.1407 60.9521 11.7622 59.822C12.1263 59.1602 12.5921 58.5515 13.1658 58.0677C14.0183 57.3488 15.1305 56.919 16.2335 57.0128C17.2451 57.0988 18.191 57.6154 18.9291 58.3249C19.5824 58.9528 20.0912 59.7355 20.4146 60.5932C20.7379 59.7355 21.2467 58.9528 21.9 58.3249C22.6382 57.6154 23.5841 57.0988 24.5956 57.0128C25.6986 56.919 26.8108 57.3488 27.6633 58.0677C28.2371 58.5515 28.7028 59.1602 29.0669 59.822C29.6885 60.9521 30.018 62.3007 29.7151 63.5587C29.5479 64.2533 29.1969 64.8905 28.7763 65.4632C28.1537 66.3109 27.3792 67.0282 26.6183 67.7495C25.6442 68.6728 24.6826 69.6132 23.8079 70.6345C22.4514 72.2182 21.3098 73.9924 20.4254 75.891" fill="#FF0000"/>
<path d="M31.791 34.7028C31.791 38.4502 30.5808 41.2995 28.1604 43.2509C26.0386 44.9605 23.2173 45.8153 19.6967 45.8153C16.2075 45.8153 13.402 44.9 11.2802 43.0695C8.95408 41.0491 7.79102 38.1738 7.79102 34.4438C7.79102 30.5238 9.66921 27.6399 13.4256 25.7921C10.5336 23.7717 9.08768 20.8878 9.08768 17.1405C9.08768 13.8422 10.2665 11.3899 12.624 9.78395C14.5572 8.47152 17.1034 7.81531 20.2625 7.81531C23.1388 7.81531 25.5042 8.58378 27.3588 10.1207C29.402 11.8476 30.4236 14.248 30.4236 17.3218C30.4236 20.8447 28.9855 23.6595 26.1093 25.7662C29.8971 27.5277 31.791 30.5065 31.791 34.7028ZM24.459 18.3062C24.459 15.0769 22.8873 13.4623 19.7439 13.4623C18.3136 13.4623 17.1741 13.8853 16.3254 14.7315C15.4767 15.5604 15.0523 16.752 15.0523 18.3062C15.0523 19.8085 15.5003 21 16.3961 21.8807C17.2448 22.7442 18.3608 23.1759 19.7439 23.1759C21.0955 23.1759 22.2193 22.7355 23.1152 21.8548C24.0111 20.9741 24.459 19.7913 24.459 18.3062ZM25.5671 34.4697C25.5671 32.6737 25.0091 31.2577 23.8932 30.2215C22.8401 29.2372 21.4806 28.7451 19.8146 28.7451C18.18 28.7451 16.8362 29.2459 15.7832 30.2475C14.6515 31.3009 14.0857 32.7083 14.0857 34.4697C14.0857 36.3175 14.6358 37.7507 15.736 38.7696C16.7576 39.7194 18.125 40.1943 19.8382 40.1943C21.5356 40.1943 22.8951 39.7108 23.9168 38.7437C25.017 37.7249 25.5671 36.3002 25.5671 34.4697Z" fill="#FF0000"/>
<path d="M49.962 197C46.862 190.166 42.8603 183.779 38.1058 178.079C35.0396 174.402 31.6692 171.018 28.2547 167.694C25.5874 165.098 22.8728 162.515 20.6904 159.464C19.2161 157.403 17.9857 155.109 17.3996 152.609C16.3379 148.08 17.4929 143.226 19.6718 139.158C20.9479 136.776 22.5806 134.585 24.5917 132.843C27.5797 130.256 31.4783 128.708 35.3446 129.046C38.8902 129.356 42.2059 131.215 44.7932 133.769C47.0831 136.029 48.8667 138.847 50 141.934C51.1333 138.847 52.9169 136.029 55.2068 133.769C57.7941 131.215 61.1098 129.356 64.6554 129.046C68.5216 128.708 72.4202 130.256 75.4083 132.843C77.4194 134.585 79.0521 136.776 80.3282 139.158C82.5071 143.226 83.6621 148.08 82.6004 152.609C82.0143 155.109 80.7839 157.403 79.3095 159.464C77.1272 162.515 74.4126 165.098 71.7453 167.694C68.3308 171.018 64.9604 174.402 61.8942 178.079C57.1397 183.779 53.138 190.166 50.038 197" fill="#FF0000"/>
<path d="M117.463 144C114.41 137.166 110.468 130.779 105.786 125.079C102.766 121.402 99.4469 118.018 96.0841 114.694C93.4573 112.098 90.7839 109.516 88.6345 106.464C87.1825 104.403 85.9708 102.109 85.3935 99.6088C84.3479 95.0804 85.4854 90.2258 87.6313 86.158C88.888 83.7757 90.496 81.5848 92.4766 79.8432C95.4194 77.2555 99.259 75.7083 103.067 76.046C106.559 76.3557 109.824 78.2153 112.372 80.7691C114.627 83.0294 116.384 85.8469 117.5 88.9341C118.616 85.8469 120.373 83.0294 122.628 80.7691C125.176 78.2153 128.441 76.3557 131.933 76.046C135.741 75.7083 139.581 77.2555 142.523 79.8432C144.504 81.5848 146.112 83.7757 147.369 86.158C149.515 90.2258 150.652 95.0804 149.606 99.6088C149.029 102.109 147.817 104.403 146.365 106.464C144.216 109.516 141.543 112.098 138.916 114.694C135.553 118.018 132.234 121.402 129.214 125.079C124.532 130.779 120.59 137.166 117.537 144" fill="#FF0000"/>
<path d="M184.962 197C181.862 190.166 177.86 183.779 173.106 178.079C170.04 174.402 166.669 171.018 163.255 167.694C160.587 165.098 157.873 162.515 155.69 159.464C154.216 157.403 152.986 155.109 152.4 152.609C151.338 148.08 152.493 143.226 154.672 139.158C155.948 136.776 157.581 134.585 159.592 132.843C162.58 130.256 166.478 128.708 170.345 129.046C173.89 129.356 177.206 131.215 179.793 133.769C182.083 136.029 183.867 138.847 185 141.934C186.133 138.847 187.917 136.029 190.207 133.769C192.794 131.215 196.11 129.356 199.655 129.046C203.522 128.708 207.42 130.256 210.408 132.843C212.419 134.585 214.052 136.776 215.328 139.158C217.507 143.226 218.662 148.08 217.6 152.609C217.014 155.109 215.784 157.403 214.31 159.464C212.127 162.515 209.413 165.098 206.745 167.694C203.331 171.018 199.96 174.402 196.894 178.079C192.14 183.779 188.138 190.166 185.038 197" fill="#FF0000"/>
<path d="M117.463 189C114.41 195.834 110.468 202.221 105.786 207.921C102.766 211.598 99.4469 214.982 96.0841 218.306C93.4573 220.902 90.7839 223.484 88.6345 226.536C87.1825 228.597 85.9708 230.891 85.3935 233.391C84.3479 237.92 85.4854 242.774 87.6313 246.842C88.888 249.224 90.496 251.415 92.4766 253.157C95.4194 255.744 99.259 257.292 103.067 256.954C106.559 256.644 109.824 254.785 112.372 252.231C114.627 249.971 116.384 247.153 117.5 244.066C118.616 247.153 120.373 249.971 122.628 252.231C125.176 254.785 128.441 256.644 131.933 256.954C135.741 257.292 139.581 255.744 142.523 253.157C144.504 251.415 146.112 249.224 147.369 246.842C149.515 242.774 150.652 237.92 149.606 233.391C149.029 230.891 147.817 228.597 146.365 226.536C144.216 223.484 141.543 220.902 138.916 218.306C135.553 214.982 132.234 211.598 129.214 207.921C124.532 202.221 120.59 195.834 117.537 189" fill="#FF0000"/>
</g>
<defs>
<clipPath id="clip0_8_76">
<rect width="234" height="333" fill="white"/>
</clipPath>
</defs>
</svg>
