<svg width="234" height="333" viewBox="0 0 234 333" fill="none" xmlns="http://www.w3.org/2000/svg">
<g clip-path="url(#clip0_1_78)">
<path d="M224.703 0.377991H9.29717C4.37124 0.377991 0.377991 4.38313 0.377991 9.32373V323.676C0.377991 328.617 4.37124 332.622 9.29717 332.622H224.703C229.629 332.622 233.622 328.617 233.622 323.676V9.32373C233.622 4.38313 229.629 0.377991 224.703 0.377991Z" fill="black" stroke="#808080" stroke-width="0.756"/>
<path d="M177.774 77.9568H172.958V94.7141H177.774V77.9568Z" fill="black"/>
<path d="M37.791 32.9999C37.791 36.9216 36.3904 40.0379 33.5892 42.3489C30.8086 44.6599 27.1113 45.8154 22.4975 45.8154C18.0691 45.8154 14.5676 44.8963 11.9929 43.058C9.19166 41.0972 7.79105 38.2697 7.79105 34.5756C7.79105 33.9803 8.34717 33.6827 9.45943 33.6827H13.5068C13.9393 33.6827 14.341 33.7352 14.7117 33.8403C14.8353 34.0153 14.9177 34.2429 14.9589 34.523C15.3091 36.5014 15.9785 37.9195 16.9672 38.7774C18.0794 39.7403 19.789 40.2218 22.0959 40.2218C24.4028 40.2218 26.2668 39.5302 27.6881 38.1471C29.0269 36.834 29.6963 35.1884 29.6963 33.21C29.6963 28.3254 27.3173 25.8831 22.5593 25.8831C20.8291 25.8831 19.0887 26.3908 17.3379 27.4063H12.2401C11.7663 27.4063 11.3132 27.3537 10.8806 27.2487C10.6747 27.0736 10.5717 26.8723 10.5717 26.6447C10.5717 24.1586 10.7262 21.0247 11.0351 17.2431C11.3029 14.0918 11.5707 10.9492 11.8384 7.81537H35.0104C35.5459 7.81537 36.03 7.88539 36.4625 8.02544C36.6479 8.37559 36.7406 9.60116 36.7406 11.7021C36.7406 12.0522 36.72 12.3411 36.6788 12.5687C36.5346 13.1289 35.9373 13.4091 34.8868 13.4091H18.1103C18.1721 14.3545 18.0794 15.7988 17.8322 17.7421C17.5851 19.668 17.4924 21.1036 17.5542 22.049C19.6757 20.9285 21.8899 20.3682 24.1968 20.3682C28.4399 20.3682 31.7972 21.5938 34.2689 24.0448C36.617 26.3558 37.791 29.3408 37.791 32.9999Z" fill="#999999"/>
<path d="M186.241 171.527C196.171 187.093 189.732 206.721 171.86 215.369C153.987 224.017 131.449 218.409 121.519 202.844C118.875 198.698 117.313 194.096 116.951 189.37C115.569 207.141 97.9081 220.563 77.5094 219.354C57.1109 218.146 41.6994 202.765 43.0868 185C44.4742 167.235 62.1352 153.813 82.5337 155.021C87.8888 155.338 93.1007 156.666 97.8754 158.915C80.3939 149.782 74.6724 129.986 85.1635 114.702C95.6545 99.4191 118.385 94.4362 135.934 103.573C153.483 112.71 159.205 132.506 148.713 147.789C145.557 152.388 141.134 156.228 135.873 158.984C153.774 150.355 176.312 155.962 186.241 171.527Z" fill="#9A9A9A"/>
<path d="M36.0852 73.6579C38.0321 77.0182 36.7696 81.2558 33.2654 83.1227C29.7611 84.9897 25.3421 83.7791 23.3952 80.4187C22.8767 79.5238 22.5704 78.5302 22.4994 77.5099C22.2285 81.3464 18.7658 84.244 14.7662 83.9832C10.7667 83.7223 7.745 80.4017 8.01702 76.5665C8.28904 72.7312 11.7518 69.8335 15.7513 70.0944C16.8013 70.1629 17.8232 70.4495 18.7593 70.935C15.3318 68.9633 14.21 64.6895 16.2669 61.39C18.3239 58.0905 22.7807 57.0147 26.2215 58.9872C29.6623 60.9597 30.7841 65.2335 28.7271 68.533C28.1082 69.5258 27.2411 70.355 26.2096 70.9498C29.7193 69.0869 34.1383 70.2975 36.0852 73.6579Z" fill="#9A9A9A"/>
</g>
<defs>
<clipPath id="clip0_1_78">
<rect width="234" height="333" fill="white"/>
</clipPath>
</defs>
</svg>
