<svg width="234" height="333" viewBox="0 0 234 333" fill="none" xmlns="http://www.w3.org/2000/svg">
<g clip-path="url(#clip0_1_353)">
<path d="M224.325 2H8.91919C3.99326 2 0 6.00514 0 10.9457V325.298C0 330.239 3.99326 334.244 8.91919 334.244H224.325C229.251 334.244 233.244 330.239 233.244 325.298V10.9457C233.244 6.00514 229.251 2 224.325 2Z" fill="#1B1B1B" stroke="#808080" stroke-width="0.756"/>
<path d="M37.4131 46.0708C37.4131 46.5088 37.3154 46.8943 37.1202 47.2272C36.5996 47.3673 36.0356 47.4374 35.4282 47.4374H11.4152C9.98356 47.4374 9.26772 46.8242 9.26772 45.5979C9.26772 45.3876 9.28942 45.0548 9.3328 44.5993C9.37618 44.1262 9.39787 43.767 9.39787 43.5217C9.39787 42.3654 10.0269 41.7873 11.2851 41.7873H19.387V17.5052H9.49548C8.1072 17.5052 7.41306 16.8921 7.41306 15.6657C7.41306 15.4029 7.44559 14.9824 7.51067 14.4043C7.59744 13.8086 7.64082 13.3618 7.64082 13.064C7.64082 12.4683 8.33496 12.1705 9.72325 12.1705C10.1137 12.1705 10.8512 12.2055 11.9358 12.2756C13.0204 12.3281 13.8664 12.3544 14.4738 12.3544C17.9445 12.3544 20.0486 11.382 20.7862 9.43738H27.0009V41.7873C28.4543 41.7873 30.0161 41.7522 31.6864 41.6821C33.3783 41.5945 34.387 41.5508 34.7124 41.5508C35.9705 41.5508 36.7514 41.8224 37.0551 42.3655C37.2937 42.8385 37.4131 44.0736 37.4131 46.0708Z" fill="#999999"/>
<path d="M69.622 29.0754C69.622 41.4399 64.6571 47.6221 54.7274 47.6221C44.6571 47.6221 39.622 41.4053 39.622 28.9718C39.622 16.072 44.7574 9.62207 55.0283 9.62207C64.7574 9.62207 69.622 16.1065 69.622 29.0754ZM61.7986 28.5314C61.7986 19.6725 59.4014 15.2431 54.607 15.2431C51.7986 15.2431 49.8026 16.9958 48.619 20.5014C47.8768 22.7118 47.5057 25.4663 47.5057 28.7646C47.5057 37.6235 49.8728 42.053 54.607 42.053C57.4355 42.053 59.4515 40.3088 60.6551 36.8205C61.4174 34.5755 61.7986 31.8125 61.7986 28.5314Z" fill="#999999"/>
<path d="M185.863 181.15C195.793 196.715 189.354 216.343 171.482 224.991C153.609 233.639 131.071 228.031 121.141 212.466C118.497 208.32 116.935 203.718 116.573 198.992C115.191 216.763 97.5301 230.185 77.1315 228.976C56.733 227.768 41.3215 212.387 42.7088 194.622C44.0962 176.857 61.7572 163.435 82.1557 164.643C87.5109 164.961 92.7227 166.288 97.4974 168.537C80.016 159.404 74.2944 139.608 84.7855 124.324C95.2766 109.041 118.007 104.058 135.556 113.195C153.105 122.332 158.827 142.128 148.336 157.411C145.179 162.01 140.756 165.851 135.495 168.606C153.396 159.977 175.934 165.584 185.863 181.15Z" fill="#9A9A9A"/>
</g>
<defs>
<clipPath id="clip0_1_353">
<rect width="234" height="333" fill="white"/>
</clipPath>
</defs>
</svg>
