<svg width="234" height="333" viewBox="0 0 234 333" fill="none" xmlns="http://www.w3.org/2000/svg">
<g clip-path="url(#clip0_1_469)">
<path d="M224.703 0.37793H9.29715C4.37122 0.37793 0.37796 4.38307 0.37796 9.32367V323.676C0.37796 328.617 4.37122 332.622 9.29715 332.622H224.703C229.629 332.622 233.622 328.617 233.622 323.676V9.32367C233.622 4.38307 229.629 0.37793 224.703 0.37793Z" fill="white" stroke="#808080" stroke-width="0.755906"/>
<path d="M18.007 55.7542H16.4017V61.3399H18.007V55.7542Z" fill="#999999"/>
<path d="M26.0262 53.0826C27.2903 55.3647 26.4706 58.2425 24.1953 59.5104C21.9201 60.7783 19.0509 59.9561 17.7868 57.674C17.4502 57.0663 17.2513 56.3915 17.2052 55.6986C17.0293 58.304 14.781 60.2719 12.1842 60.0947C9.58739 59.9176 7.62545 57.6625 7.80206 55.0579C7.97868 52.4532 10.227 50.4853 12.8238 50.6625C13.5055 50.709 14.169 50.9036 14.7769 51.2334C12.5514 49.8943 11.823 46.9918 13.1586 44.7511C14.4941 42.5103 17.3878 41.7797 19.6219 43.1193C21.8559 44.4589 22.5843 47.3613 21.2487 49.6021C20.8469 50.2763 20.2839 50.8395 19.6141 51.2434C21.8929 49.9783 24.7621 50.8005 26.0262 53.0826Z" fill="#999999"/>
<path d="M218.165 277.246H216.559V271.66H218.165V277.246Z" fill="#999999"/>
<path d="M226.184 279.917C227.448 277.635 226.628 274.757 224.353 273.49C222.078 272.222 219.209 273.044 217.945 275.326C217.608 275.934 217.409 276.608 217.363 277.301C217.187 274.696 214.939 272.728 212.342 272.905C209.745 273.082 207.783 275.337 207.96 277.942C208.136 280.547 210.385 282.515 212.982 282.337C213.663 282.291 214.327 282.096 214.935 281.767C212.709 283.106 211.981 286.008 213.316 288.249C214.652 290.49 217.546 291.22 219.78 289.881C222.014 288.541 222.742 285.639 221.406 283.398C221.005 282.724 220.442 282.16 219.772 281.757C222.051 283.022 224.92 282.199 226.184 279.917Z" fill="#999999"/>
<path d="M26.6202 36.1519H20.7724L12.7757 23.5728V36.1519H7.79102V7.81531H12.7757V17.5626L19.8036 7.81531H25.7395L16.686 20.4521L26.6202 36.1519Z" fill="#999999"/>
<path d="M207.38 296.848H213.228L221.224 309.427V296.848H226.209V325.185H221.224V315.437L214.196 325.185H208.261L217.314 312.548L207.38 296.848Z" fill="#999999"/>
<path d="M224.703 0.37793H9.29715C4.37122 0.37793 0.37796 4.38307 0.37796 9.32367V323.676C0.37796 328.617 4.37122 332.622 9.29715 332.622H224.703C229.629 332.622 233.622 328.617 233.622 323.676V9.32367C233.622 4.38307 229.629 0.37793 224.703 0.37793Z" fill="black" stroke="#808080" stroke-width="0.755906"/>
<path d="M175 243.337H139.284L90.4443 175.268V243.337H60V90H90.4443V142.745L133.368 90H169.621L114.326 158.381L175 243.337Z" fill="#999999"/>
<path d="M37.791 45.8153H28.4739L15.733 28.9465V45.8153H7.79102V7.81531H15.733V20.8867L26.9304 7.81531H36.3878L21.9631 24.7616L37.791 45.8153Z" fill="#999999"/>
<path d="M37.0852 73.6579C39.0321 77.0182 37.7696 81.2558 34.2654 83.1227C30.7611 84.9897 26.3421 83.7791 24.3952 80.4187C23.8767 79.5238 23.5704 78.5302 23.4994 77.5099C23.2285 81.3464 19.7658 84.244 15.7662 83.9832C11.7667 83.7223 8.745 80.4017 9.01702 76.5665C9.28904 72.7312 12.7518 69.8335 16.7513 70.0944C17.8013 70.1629 18.8232 70.4495 19.7593 70.935C16.3318 68.9633 15.21 64.6895 17.2669 61.39C19.3239 58.0905 23.7807 57.0147 27.2215 58.9872C30.6623 60.9597 31.7841 65.2335 29.7271 68.533C29.1082 69.5258 28.2411 70.355 27.2096 70.9498C30.7193 69.0869 35.1383 70.2975 37.0852 73.6579Z" fill="#9A9A9A"/>
</g>
<defs>
<clipPath id="clip0_1_469">
<rect width="234" height="333" fill="white"/>
</clipPath>
</defs>
</svg>
