<svg width="234" height="333" viewBox="0 0 234 333" fill="none" xmlns="http://www.w3.org/2000/svg">
<g clip-path="url(#clip0_1_114)">
<path d="M224.703 0.377991H9.29718C4.37125 0.377991 0.377998 4.38313 0.377998 9.32373V323.676C0.377998 328.617 4.37125 332.622 9.29718 332.622H224.703C229.629 332.622 233.622 328.617 233.622 323.676V9.32373C233.622 4.38313 229.629 0.377991 224.703 0.377991Z" fill="black" stroke="#808080" stroke-width="0.756"/>
<path d="M207.255 151.758C213.096 160.934 209.309 172.506 198.796 177.604C188.283 182.703 175.026 179.397 169.186 170.22C167.63 167.776 166.711 165.063 166.498 162.277C165.685 172.754 155.297 180.666 143.299 179.954C131.3 179.242 122.235 170.174 123.051 159.701C123.867 149.227 134.255 141.315 146.254 142.027C149.404 142.214 152.47 142.997 155.278 144.323C144.995 138.938 141.63 127.267 147.801 118.257C153.972 109.247 167.342 106.309 177.665 111.696C187.987 117.082 191.352 128.753 185.181 137.763C183.325 140.474 180.723 142.739 177.629 144.363C188.158 139.276 201.415 142.582 207.255 151.758Z" fill="#9A9A9A"/>
<path d="M18.007 55.7542H16.4017V61.3399H18.007V55.7542Z" fill="black"/>
<path d="M38 44.656C38 45.025 37.9267 45.3852 37.7802 45.7366C37.4506 45.9122 37.1026 46 36.7363 46H19.0989C17.7436 46 17.0659 45.3412 17.0659 44.0236C17.0659 43.8128 17.0843 43.4439 17.1209 42.9169C17.1575 42.3898 17.1758 41.9857 17.1758 41.7046C17.1758 41.0897 17.3132 40.6944 17.5879 40.5188C17.7894 40.3958 18.2381 40.3343 18.9341 40.3343H25.8022V36.276H10.3901C8.7967 36.276 8 35.5646 8 34.1415C8 33.8956 8.02747 33.4476 8.08242 32.7976C8.13736 32.13 8.16483 31.6029 8.16483 31.2164C8.16483 30.619 8.52198 29.8724 9.23626 28.9764L25.1154 8.94867C25.6099 8.31621 26.2326 8 26.9835 8H30.6099C31.4707 8 31.9011 8.45681 31.9011 9.37036V30.8738C32.5604 30.8738 33.3114 30.8563 34.1538 30.8211C35.0147 30.786 35.5641 30.7685 35.8022 30.7685C36.7912 30.7685 37.4048 31.0056 37.6429 31.48C37.881 31.9367 38 33.0786 38 34.9057C38 35.2395 37.9725 35.4943 37.9176 35.6699C37.8077 36.074 37.3865 36.2761 36.6539 36.2761H31.9011V40.3343C32.5788 40.3343 33.348 40.3168 34.2088 40.2817C35.0696 40.2466 35.6099 40.229 35.8297 40.229C36.8736 40.229 37.5055 40.4837 37.7253 40.9932C37.9084 41.4149 38 42.6358 38 44.6561V44.656ZM25.9121 16.4591C24.9048 17.9348 21.1868 22.7398 14.7582 30.8738H25.8022C25.8022 29.9427 25.7839 28.344 25.7472 26.0777C25.6923 24.0222 25.674 22.4147 25.6923 21.2552C25.7106 19.4984 25.7839 17.8997 25.9121 16.4591H25.9121Z" fill="#999999"/>
<path d="M207.255 219.242C213.096 210.066 209.309 198.494 198.796 193.396C188.283 188.297 175.026 191.603 169.186 200.78C167.63 203.224 166.711 205.937 166.498 208.723C165.685 198.246 155.297 190.334 143.299 191.046C131.3 191.758 122.235 200.826 123.051 211.299C123.867 221.773 134.255 229.685 146.254 228.973C149.404 228.786 152.47 228.003 155.278 226.677C144.995 232.062 141.63 243.733 147.801 252.743C153.972 261.753 167.342 264.691 177.665 259.304C187.987 253.918 191.352 242.247 185.181 233.237C183.325 230.526 180.723 228.261 177.629 226.637C188.158 231.724 201.415 228.418 207.255 219.242Z" fill="#9A9A9A"/>
<path d="M108.255 155.758C114.096 164.934 110.309 176.506 99.7961 181.604C89.2833 186.703 76.0263 183.397 70.1856 174.22C68.63 171.776 67.7113 169.063 67.4982 166.277C66.6855 176.754 56.2973 184.666 44.2987 183.954C32.3001 183.242 23.235 174.174 24.051 163.701C24.8671 153.227 35.2554 145.315 47.254 146.027C50.4039 146.214 53.4695 146.997 56.278 148.323C45.9953 142.938 42.6299 131.267 48.8008 122.257C54.9717 113.247 68.3421 110.309 78.6645 115.696C88.9868 121.082 92.3522 132.753 86.1813 141.763C84.3247 144.474 81.7232 146.739 78.6287 148.363C89.1578 143.276 102.415 146.582 108.255 155.758Z" fill="#9A9A9A"/>
<path d="M108.255 219.242C114.096 210.066 110.309 198.494 99.7961 193.396C89.2833 188.297 76.0263 191.603 70.1856 200.78C68.63 203.224 67.7113 205.937 67.4982 208.723C66.6855 198.246 56.2973 190.334 44.2987 191.046C32.3001 191.758 23.235 200.826 24.051 211.299C24.8671 221.773 35.2554 229.685 47.254 228.973C50.4039 228.786 53.4695 228.003 56.278 226.677C45.9953 232.062 42.6299 243.733 48.8008 252.743C54.9717 261.753 68.3421 264.691 78.6645 259.304C88.9868 253.918 92.3522 242.247 86.1813 233.237C84.3247 230.526 81.7232 228.261 78.6287 226.637C89.1578 231.724 102.415 228.418 108.255 219.242Z" fill="#9A9A9A"/>
<path d="M36.0852 73.6579C38.0321 77.0182 36.7696 81.2558 33.2654 83.1227C29.7611 84.9897 25.3421 83.7791 23.3952 80.4187C22.8767 79.5238 22.5704 78.5302 22.4994 77.5099C22.2285 81.3464 18.7658 84.244 14.7662 83.9832C10.7667 83.7223 7.745 80.4017 8.01702 76.5665C8.28904 72.7312 11.7518 69.8335 15.7513 70.0944C16.8013 70.1629 17.8232 70.4495 18.7593 70.935C15.3318 68.9633 14.21 64.6895 16.2669 61.39C18.3239 58.0905 22.7807 57.0147 26.2215 58.9872C29.6623 60.9597 30.7841 65.2335 28.7271 68.533C28.1082 69.5258 27.2411 70.355 26.2096 70.9498C29.7193 69.0869 34.1383 70.2975 36.0852 73.6579Z" fill="#9A9A9A"/>
</g>
<defs>
<clipPath id="clip0_1_114">
<rect width="234" height="333" fill="white"/>
</clipPath>
</defs>
</svg>
