<svg width="234" height="333" viewBox="0 0 234 333" fill="none" xmlns="http://www.w3.org/2000/svg">
<g clip-path="url(#clip0_1_35)">
<path d="M224.325 0H8.91919C3.99326 0 0 4.00514 0 8.94574V323.298C0 328.239 3.99326 332.244 8.91919 332.244H224.325C229.251 332.244 233.244 328.239 233.244 323.298V8.94574C233.244 4.00514 229.251 0 224.325 0Z" fill="#1B1B1B" stroke="#808080" stroke-width="0.755906"/>
<path d="M168.53 121.676C175.915 134.269 171.126 150.149 157.834 157.145C144.542 164.141 127.78 159.604 120.396 147.012C118.429 143.658 117.267 139.935 116.998 136.111C115.97 150.488 102.836 161.347 87.665 160.369C72.4944 159.392 61.0327 146.948 62.0645 132.576C63.0963 118.204 76.231 107.345 91.4016 108.322C95.3842 108.579 99.2603 109.653 102.811 111.473C89.8102 104.084 85.555 88.068 93.3573 75.7035C101.16 63.339 118.065 59.3078 131.116 66.6996C144.167 74.0913 148.422 90.1069 140.62 102.471C138.273 106.192 134.983 109.299 131.071 111.528C144.383 104.547 161.145 109.084 168.53 121.676Z" fill="#9A9A9A"/>
<path d="M224.703 0.378052H9.29711C4.37118 0.378052 0.37793 4.3832 0.37793 9.32379V323.676C0.37793 328.617 4.37118 332.622 9.29711 332.622H224.703C229.629 332.622 233.622 328.617 233.622 323.676V9.32379C233.622 4.3832 229.629 0.378052 224.703 0.378052Z" stroke="#808080" stroke-width="0.756"/>
<path d="M168.53 211.756C175.915 199.163 171.126 183.284 157.834 176.287C144.542 169.291 127.78 173.828 120.396 186.42C118.429 189.774 117.267 193.498 116.998 197.321C115.97 182.944 102.836 172.086 87.665 173.063C72.4944 174.041 61.0327 186.484 62.0645 200.856C63.0963 215.229 76.231 226.087 91.4016 225.11C95.3842 224.853 99.2603 223.779 102.811 221.96C89.8102 229.349 85.555 245.364 93.3573 257.729C101.16 270.093 118.065 274.124 131.116 266.733C144.167 259.341 148.422 243.325 140.62 230.961C138.273 227.241 134.983 224.133 131.071 221.904C144.383 228.885 161.145 224.349 168.53 211.756V211.756Z" fill="#9A9A9A"/>
<path d="M37.0852 74.6579C39.0321 78.0182 37.7696 82.2558 34.2654 84.1227C30.7611 85.9897 26.3421 84.7791 24.3952 81.4187C23.8767 80.5238 23.5704 79.5302 23.4994 78.5099C23.2285 82.3464 19.7658 85.244 15.7662 84.9832C11.7667 84.7223 8.745 81.4017 9.01702 77.5665C9.28904 73.7312 12.7518 70.8335 16.7513 71.0944C17.8013 71.1629 18.8232 71.4495 19.7593 71.935C16.3318 69.9633 15.21 65.6895 17.2669 62.39C19.3239 59.0905 23.7807 58.0147 27.2215 59.9872C30.6623 61.9597 31.7841 66.2335 29.7271 69.533C29.1082 70.5258 28.2411 71.355 27.2096 71.9498C30.7193 70.0869 35.1383 71.2975 37.0852 74.6579V74.6579Z" fill="#9A9A9A"/>
<path d="M37.9772 38.2792L36.8591 46H8C8.44321 41.5706 10.4981 37.6576 14.1647 34.2612L23.9556 27.0131C27.3603 24.457 29.0626 21.8922 29.0626 19.3186C29.0626 17.6028 28.4985 16.2372 27.3704 15.2218C26.2623 14.1889 24.7312 13.6724 22.7771 13.6724C20.5207 13.6724 18.8385 14.1976 17.7305 15.2481C17.0053 15.9484 16.4512 17.0251 16.0685 18.4783C15.6857 20.0189 15.3835 20.9118 15.1619 21.1569C14.8396 21.2444 14.4669 21.2882 14.0438 21.2882H10.2362C9.79299 21.2882 9.41022 21.2094 9.08788 21.0518C8.94686 20.6842 8.87635 20.2728 8.87635 19.8176C8.87635 16.1585 10.2564 13.2523 13.0163 11.0989C15.6555 9.03297 19.0904 8 23.321 8C27.2495 8 30.4628 8.9104 32.9609 10.7312C35.6201 12.657 36.9498 15.3006 36.9498 18.6621C36.9498 21.971 35.4791 24.9998 32.5378 27.7485C31.5104 28.7289 28.5892 30.821 23.7743 34.0249C20.2689 36.3884 18.1133 38.5156 17.3074 40.4064H31.3895L31.6312 38.0429C31.8528 37.2026 32.4471 36.7824 33.4142 36.7824H36.4361C37.6045 36.7824 38.1182 37.2813 37.9772 38.2793V38.2792Z" fill="#999999"/>
</g>
<defs>
<clipPath id="clip0_1_35">
<rect width="234" height="333" fill="white"/>
</clipPath>
</defs>
</svg>
