<svg width="234" height="333" viewBox="0 0 234 333" fill="none" xmlns="http://www.w3.org/2000/svg">
<g clip-path="url(#clip0_1_441)">
<path d="M224.703 0.37793H9.29712C4.37119 0.37793 0.37793 4.38307 0.37793 9.32367V323.676C0.37793 328.617 4.37119 332.622 9.29712 332.622H224.703C229.629 332.622 233.622 328.617 233.622 323.676V9.32367C233.622 4.38307 229.629 0.37793 224.703 0.37793Z" fill="#1B1B1B" stroke="#808080" stroke-width="0.755906"/>
<path d="M196 243H163.218L150.381 227.267C139.783 232.794 127.967 235.557 114.933 235.557C93.4728 235.557 75.4358 228.554 60.822 214.548C46.274 200.479 39 183.207 39 162.732C39 149.605 42.3243 137.483 48.973 126.366C55.6216 115.249 64.9034 106.393 76.8182 99.798C88.5356 93.266 101.142 90 114.636 90C135.701 90 153.508 97.1601 168.056 111.48C182.604 125.8 189.878 143.041 189.878 163.203C189.878 181.982 183.493 198.187 170.722 211.816L196 243ZM162.23 163.014C162.23 150.076 157.721 139.022 148.703 129.852C139.487 120.493 128.131 115.814 114.636 115.814C100.615 115.814 89.1281 120.368 80.1755 129.475C71.2887 138.519 66.8453 149.762 66.8453 163.203C66.8453 178.528 72.6052 190.65 84.1252 199.568C93.1436 206.54 103.38 210.026 114.834 210.026C121.417 210.026 127.605 208.801 133.397 206.352L107.428 174.414H140.408L153.442 190.524C159.301 182.233 162.23 173.063 162.23 163.014Z" fill="#999999"/>
<path d="M37.791 46.8153H31.5268L29.074 42.8048C27.0488 44.2137 24.791 44.9181 22.3004 44.9181C18.1998 44.9181 14.7532 43.133 11.9608 39.5628C9.18089 35.9766 7.79095 31.5739 7.79095 26.3547C7.79095 23.0087 8.42617 19.9188 9.69661 17.085C10.9671 14.2513 12.7406 11.9939 15.0174 10.3128C17.2564 8.64782 19.6652 7.81531 22.2438 7.81531C26.2689 7.81531 29.6715 9.64043 32.4513 13.2907C35.2312 16.9409 36.6211 21.3356 36.6211 26.4748C36.6211 31.2617 35.401 35.3923 32.9608 38.8664L37.791 46.8153ZM31.3381 26.4268C31.3381 23.1287 30.4765 20.311 28.7532 17.9736C26.9922 15.5881 24.8224 14.3954 22.2438 14.3954C19.5645 14.3954 17.3696 15.5561 15.6589 17.8775C13.9608 20.1829 13.1117 23.0487 13.1117 26.4748C13.1117 30.3812 14.2123 33.4711 16.4136 35.7445C18.1369 37.5216 20.0928 38.4101 22.2815 38.4101C23.5394 38.4101 24.7218 38.0979 25.8287 37.4736L20.8664 29.3325H27.1683L29.6589 33.4391C30.7784 31.3258 31.3381 28.9883 31.3381 26.4268Z" fill="#999999"/>
<path d="M37.0852 72.6579C39.0321 76.0182 37.7696 80.2558 34.2654 82.1227C30.7611 83.9897 26.3421 82.7791 24.3952 79.4187C23.8767 78.5238 23.5704 77.5302 23.4994 76.5099C23.2285 80.3464 19.7658 83.244 15.7662 82.9832C11.7667 82.7223 8.745 79.4017 9.01702 75.5665C9.28904 71.7312 12.7518 68.8335 16.7513 69.0944C17.8013 69.1629 18.8232 69.4495 19.7593 69.935C16.3318 67.9633 15.21 63.6895 17.2669 60.39C19.3239 57.0905 23.7807 56.0147 27.2215 57.9872C30.6623 59.9597 31.7841 64.2335 29.7271 67.533C29.1082 68.5258 28.2411 69.355 27.2096 69.9498C30.7193 68.0869 35.1383 69.2975 37.0852 72.6579Z" fill="#9A9A9A"/>
</g>
<defs>
<clipPath id="clip0_1_441">
<rect width="234" height="333" fill="white"/>
</clipPath>
</defs>
</svg>
