<svg width="234" height="333" viewBox="0 0 234 333" fill="none" xmlns="http://www.w3.org/2000/svg">
<g clip-path="url(#clip0_1_413)">
<path d="M224.703 0.37793H9.29712C4.37119 0.37793 0.37793 4.38307 0.37793 9.32367V323.676C0.37793 328.617 4.37119 332.622 9.29712 332.622H224.703C229.629 332.622 233.622 328.617 233.622 323.676V9.32367C233.622 4.38307 229.629 0.37793 224.703 0.37793Z" fill="#1B1B1B" stroke="#808080" stroke-width="0.755906"/>
<path d="M37.791 32.4095C37.791 35.467 37.5464 37.6845 37.0574 39.0621C36.2079 41.4644 34.4061 43.2451 31.652 44.4042C29.4641 45.345 26.8386 45.8154 23.7755 45.8154C17.5207 45.8154 12.1925 44.0263 7.79095 40.448L15.5902 35.6854C18.4988 37.8357 21.1372 38.9109 23.5052 38.9109C25.1269 38.9109 26.1693 38.2557 26.6327 36.9453C26.8386 36.3741 26.9415 35.3074 26.9415 33.7451V7.81537H37.791V32.4095Z" fill="#999999"/>
<path d="M167 189.024C167 201.334 166.193 210.262 164.579 215.809C161.776 225.481 155.83 232.651 146.741 237.318C139.521 241.106 130.857 243 120.749 243C100.108 243 82.5251 235.796 68 221.389L93.7375 202.213C103.336 210.871 112.042 215.2 119.857 215.2C125.208 215.2 128.649 212.562 130.178 207.287C130.857 204.987 131.197 200.692 131.197 194.401V90H167V189.024Z" fill="#999999"/>
<path d="M37.0852 73.6579C39.0321 77.0182 37.7696 81.2558 34.2654 83.1227C30.7611 84.9897 26.3421 83.7791 24.3952 80.4187C23.8767 79.5238 23.5704 78.5302 23.4994 77.5099C23.2285 81.3464 19.7658 84.244 15.7662 83.9832C11.7667 83.7223 8.745 80.4017 9.01702 76.5665C9.28904 72.7312 12.7518 69.8335 16.7513 70.0944C17.8013 70.1629 18.8232 70.4495 19.7593 70.935C16.3318 68.9633 15.21 64.6895 17.2669 61.39C19.3239 58.0905 23.7807 57.0147 27.2215 58.9872C30.6623 60.9597 31.7841 65.2335 29.7271 68.533C29.1082 69.5258 28.2411 70.355 27.2096 70.9498C30.7193 69.0869 35.1383 70.2975 37.0852 73.6579Z" fill="#9A9A9A"/>
</g>
<defs>
<clipPath id="clip0_1_413">
<rect width="234" height="333" fill="white"/>
</clipPath>
</defs>
</svg>
