<svg width="234" height="333" viewBox="0 0 234 333" fill="none" xmlns="http://www.w3.org/2000/svg">
<g clip-path="url(#clip0_1_309)">
<path d="M224.703 0.377991H9.29718C4.37125 0.377991 0.377998 4.38313 0.377998 9.32373V323.676C0.377998 328.617 4.37125 332.622 9.29718 332.622H224.703C229.629 332.622 233.622 328.617 233.622 323.676V9.32373C233.622 4.38313 229.629 0.377991 224.703 0.377991Z" fill="#1B1B1B" stroke="#808080" stroke-width="0.756"/>
<path d="M37.791 26.2584C37.791 31.6636 36.6732 36.0585 34.4376 39.4432C31.638 43.6913 27.3278 45.8154 21.5071 45.8154C18.1032 45.8154 15.2936 45.2369 13.0781 44.0799C10.3993 42.6638 9.05992 40.5743 9.05992 37.8113C9.05992 37.2069 9.55338 36.9047 10.5403 36.9047H15.0116C15.5957 36.9047 16.0891 37.1897 16.4919 37.7595C17.0962 38.6057 17.5594 39.1496 17.8817 39.3914C18.7075 39.9613 19.9159 40.2462 21.5071 40.2462C24.1858 40.2462 26.2704 39.1755 27.7608 37.0342C28.929 35.3073 29.5836 33.1832 29.7246 30.662C27.3681 32.268 24.5483 33.071 21.2654 33.071C17.0962 33.071 13.7729 31.8104 11.2956 29.2891C8.95922 26.9233 7.79104 23.9185 7.79104 20.2748C7.79104 16.4411 9.07 13.4104 11.6279 11.1827C14.1858 8.93778 17.6903 7.81537 22.1415 7.81537C32.5745 7.81537 37.791 13.963 37.791 26.2584ZM29.5433 20.4302C29.5433 18.5479 28.9492 16.9505 27.7608 15.6381C26.4517 14.1875 24.7397 13.4622 22.6249 13.4622C20.4497 13.4622 18.7175 14.1703 17.4285 15.5863C16.2603 16.8815 15.6762 18.4961 15.6762 20.4302C15.6762 22.3989 16.2503 24.0222 17.3983 25.3C18.647 26.6988 20.3892 27.3982 22.6249 27.3982C24.8404 27.3982 26.5725 26.6902 27.8213 25.2741C28.9693 23.9962 29.5433 22.3816 29.5433 20.4302Z" fill="#999999"/>
<path d="M186.241 179.527C196.171 195.093 189.732 214.721 171.86 223.369C153.987 232.017 131.449 226.409 121.519 210.844C118.875 206.698 117.313 202.096 116.951 197.37C115.569 215.141 97.9081 228.563 77.5094 227.354C57.1109 226.146 41.6994 210.765 43.0868 193C44.4742 175.235 62.1352 161.813 82.5337 163.021C87.8888 163.338 93.1007 164.666 97.8754 166.915C80.3939 157.782 74.6724 137.986 85.1635 122.702C95.6545 107.419 118.385 102.436 135.934 111.573C153.483 120.71 159.205 140.506 148.713 155.789C145.557 160.388 141.134 164.228 135.873 166.984C153.774 158.355 176.312 163.962 186.241 179.527Z" fill="#9A9A9A"/>
<path d="M36.0852 73.6579C38.0321 77.0182 36.7696 81.2558 33.2654 83.1227C29.7611 84.9897 25.3421 83.7791 23.3952 80.4187C22.8767 79.5238 22.5704 78.5302 22.4994 77.5099C22.2285 81.3464 18.7658 84.244 14.7662 83.9832C10.7667 83.7223 7.745 80.4017 8.01702 76.5665C8.28904 72.7312 11.7518 69.8335 15.7513 70.0944C16.8013 70.1629 17.8232 70.4495 18.7593 70.935C15.3318 68.9633 14.21 64.6895 16.2669 61.39C18.3239 58.0905 22.7807 57.0147 26.2215 58.9872C29.6623 60.9597 30.7841 65.2335 28.7271 68.533C28.1082 69.5258 27.2411 70.355 26.2096 70.9498C29.7193 69.0869 34.1383 70.2975 36.0852 73.6579Z" fill="#9A9A9A"/>
</g>
<defs>
<clipPath id="clip0_1_309">
<rect width="234" height="333" fill="white"/>
</clipPath>
</defs>
</svg>
