<svg width="234" height="333" viewBox="0 0 234 333" fill="none" xmlns="http://www.w3.org/2000/svg">
<path d="M224.703 0.37793H9.29715C4.37122 0.37793 0.37796 4.38307 0.37796 9.32367V323.676C0.37796 328.617 4.37122 332.622 9.29715 332.622H224.703C229.629 332.622 233.622 328.617 233.622 323.676V9.32367C233.622 4.38307 229.629 0.37793 224.703 0.37793Z" fill="#1B1B1B" stroke="#808080" stroke-width="0.756"/>
<path d="M37.8853 34.9435C37.8853 38.7243 36.3726 41.5992 33.347 43.568C30.6948 45.2929 27.1683 46.1554 22.7675 46.1554C18.406 46.1554 14.8991 45.2319 12.2468 43.3851C9.33918 41.3465 7.88535 38.4456 7.88535 34.6821C7.88535 30.727 10.2331 27.8173 14.9286 25.953C11.3136 23.9145 9.50617 21.0048 9.50617 17.224C9.50617 13.8961 10.9796 11.422 13.9266 9.80163C16.3431 8.47745 19.5258 7.81537 23.4747 7.81537C27.07 7.81537 30.0268 8.59071 32.3451 10.1414C34.8991 11.8837 36.1761 14.3056 36.1761 17.4069C36.1761 20.9613 34.3785 23.8013 30.7832 25.9269C35.518 27.7041 37.8853 30.7096 37.8853 34.9435ZM28.7203 18.4C28.7203 15.1419 26.7557 13.5128 22.8264 13.5128C21.0386 13.5128 19.6142 13.9397 18.5533 14.7934C17.4924 15.6297 16.962 16.8319 16.962 18.4C16.962 19.9159 17.5219 21.1181 18.6417 22.0067C19.7026 22.8778 21.0975 23.3134 22.8264 23.3134C24.516 23.3134 25.9207 22.8691 27.0406 21.9805C28.1604 21.0919 28.7203 19.8984 28.7203 18.4ZM30.1054 34.7083C30.1054 32.8962 29.4079 31.4675 28.013 30.4221C26.6967 29.429 24.9973 28.9324 22.9148 28.9324C20.8716 28.9324 19.1918 29.4377 17.8755 30.4483C16.461 31.5111 15.7537 32.9311 15.7537 34.7083C15.7537 36.5725 16.4413 38.0187 17.8166 39.0467C19.0936 40.0049 20.8028 40.4841 22.9443 40.4841C25.0661 40.4841 26.7655 39.9962 28.0425 39.0205C29.4178 37.9925 30.1054 36.5551 30.1054 34.7083Z" fill="#999999"/>
<path d="M186.241 184.527C196.171 200.093 189.732 219.721 171.86 228.369C153.987 237.017 131.449 231.409 121.519 215.844C118.875 211.698 117.313 207.096 116.951 202.37C115.569 220.141 97.9081 233.563 77.5094 232.354C57.1109 231.146 41.6994 215.765 43.0868 198C44.4742 180.235 62.1352 166.813 82.5337 168.021C87.8888 168.338 93.1007 169.666 97.8754 171.915C80.3939 162.782 74.6724 142.986 85.1635 127.702C95.6545 112.419 118.385 107.436 135.934 116.573C153.483 125.71 159.205 145.506 148.713 160.789C145.557 165.388 141.134 169.228 135.873 171.984C153.774 163.355 176.312 168.962 186.241 184.527Z" fill="#9A9A9A"/>
<path d="M37.0852 73.6579C39.0321 77.0182 37.7696 81.2558 34.2654 83.1227C30.7611 84.9897 26.3421 83.7791 24.3952 80.4187C23.8767 79.5238 23.5704 78.5302 23.4994 77.5099C23.2285 81.3464 19.7658 84.244 15.7662 83.9832C11.7667 83.7223 8.745 80.4017 9.01702 76.5665C9.28904 72.7312 12.7518 69.8335 16.7513 70.0944C17.8013 70.1629 18.8232 70.4495 19.7593 70.935C16.3318 68.9633 15.21 64.6895 17.2669 61.39C19.3239 58.0905 23.7807 57.0147 27.2215 58.9872C30.6623 60.9597 31.7841 65.2335 29.7271 68.533C29.1082 69.5258 28.2411 70.355 27.2096 70.9498C30.7193 69.0869 35.1383 70.2975 37.0852 73.6579Z" fill="#9A9A9A"/>
</svg>
