<svg width="234" height="333" viewBox="0 0 234 333" fill="none" xmlns="http://www.w3.org/2000/svg">
<g clip-path="url(#clip0_1_195)">
<path d="M224.703 0.377991H9.29717C4.37124 0.377991 0.377991 4.38313 0.377991 9.32373V323.676C0.377991 328.617 4.37124 332.622 9.29717 332.622H224.703C229.629 332.622 233.622 328.617 233.622 323.676V9.32373C233.622 4.38313 229.629 0.377991 224.703 0.377991Z" fill="#1B1B1B" stroke="#808080" stroke-width="0.756"/>
<path d="M186.241 172.527C196.171 188.093 189.732 207.721 171.86 216.369C153.987 225.017 131.449 219.409 121.519 203.844C118.875 199.698 117.313 195.096 116.951 190.37C115.569 208.141 97.9081 221.563 77.5094 220.354C57.1109 219.146 41.6994 203.765 43.0868 186C44.4742 168.235 62.1352 154.813 82.5337 156.021C87.8888 156.338 93.1007 157.666 97.8754 159.915C80.3939 150.782 74.6724 130.986 85.1635 115.702C95.6545 100.419 118.385 95.4362 135.934 104.573C153.483 113.71 159.205 133.506 148.713 148.789C145.557 153.388 141.134 157.228 135.873 159.984C153.774 151.355 176.312 156.962 186.241 172.527Z" fill="#9A9A9A"/>
<path d="M37.791 33.3819C37.791 37.2156 36.4932 40.2462 33.8977 42.4739C31.3222 44.7016 27.8011 45.8154 23.3343 45.8154C12.9721 45.8154 7.79102 39.6678 7.79102 27.3724C7.79102 21.95 8.90772 17.555 11.1411 14.1876C13.9178 9.93945 18.2236 7.81543 24.0586 7.81543C27.4389 7.81543 30.2457 8.41124 32.4791 9.60278C35.1552 11.0188 36.4932 13.0911 36.4932 15.8195C36.4932 16.4239 36.0003 16.7261 35.0144 16.7261H30.5476C29.9641 16.7261 29.4711 16.4412 29.0687 15.8714C28.4852 15.0252 28.0224 14.4812 27.6803 14.2394C26.8554 13.6695 25.6482 13.3846 24.0586 13.3846C21.3826 13.3846 19.3001 14.4553 17.8111 16.5966C16.6441 18.3235 15.9902 20.4476 15.8494 22.9688C18.2035 21.3628 21.0204 20.5598 24.3001 20.5598C28.4651 20.5598 31.785 21.8205 34.2598 24.3417C36.614 26.7248 37.791 29.7382 37.791 33.3819ZM29.9138 33.2265C29.9138 31.2578 29.3403 29.6346 28.1934 28.3567C26.9258 26.9406 25.1753 26.2326 22.9419 26.2326C20.7286 26.2326 18.9983 26.9406 17.7508 28.3567C16.624 29.6346 16.0606 31.2578 16.0606 33.2265C16.0606 35.1088 16.6542 36.7061 17.8413 38.0185C19.129 39.4518 20.8393 40.1686 22.9721 40.1686C25.1451 40.1686 26.8755 39.4605 28.1632 38.0445C29.3303 36.7493 29.9138 35.1433 29.9138 33.2265Z" fill="#999999"/>
<path d="M37.0852 73.6579C39.0321 77.0182 37.7696 81.2558 34.2654 83.1227C30.7611 84.9897 26.3421 83.7791 24.3952 80.4187C23.8767 79.5238 23.5704 78.5302 23.4994 77.5099C23.2285 81.3464 19.7658 84.244 15.7662 83.9832C11.7667 83.7223 8.745 80.4017 9.01702 76.5665C9.28904 72.7312 12.7518 69.8335 16.7513 70.0944C17.8013 70.1629 18.8232 70.4495 19.7593 70.935C16.3318 68.9633 15.21 64.6895 17.2669 61.39C19.3239 58.0905 23.7807 57.0147 27.2215 58.9872C30.6623 60.9597 31.7841 65.2335 29.7271 68.533C29.1082 69.5258 28.2411 70.355 27.2096 70.9498C30.7193 69.0869 35.1383 70.2975 37.0852 73.6579Z" fill="#9A9A9A"/>
</g>
<defs>
<clipPath id="clip0_1_195">
<rect width="234" height="333" fill="white"/>
</clipPath>
</defs>
</svg>
