<svg width="234" height="333" viewBox="0 0 234 333" fill="none" xmlns="http://www.w3.org/2000/svg">
<g clip-path="url(#clip0_1_55)">
<path d="M224.703 0.37793H9.29715C4.37122 0.37793 0.37796 4.38307 0.37796 9.32367V323.676C0.37796 328.617 4.37122 332.622 9.29715 332.622H224.703C229.629 332.622 233.622 328.617 233.622 323.676V9.32367C233.622 4.38307 229.629 0.37793 224.703 0.37793Z" fill="#1B1B1B" stroke="#808080" stroke-width="0.755906"/>
<path d="M37.5486 35.1542C37.5486 38.7171 36.0543 41.4591 33.0658 43.3803C30.3699 45.1268 26.838 46 22.4702 46C12.5224 46 7.54855 42.0704 7.54855 34.2111C7.54855 33.8443 7.6217 33.4949 7.76799 33.1631C8.08147 33.0059 8.43675 32.9273 8.83382 32.9273H12.9091C13.3061 32.9273 13.6719 33.0059 14.0062 33.1631C14.1107 33.4076 14.1943 33.6959 14.257 34.0277C14.6123 36.1934 15.3437 37.7652 16.4514 38.7433C17.6844 39.8261 19.5757 40.3675 22.1254 40.3675C24.2152 40.3675 25.9185 39.896 27.2351 38.9529C28.6144 37.9399 29.304 36.5776 29.304 34.866C29.304 31.2333 26.932 29.1025 22.1881 28.4738C21.6029 28.404 21.164 28.2991 20.8714 28.1594C20.7042 27.8799 20.6207 26.4653 20.6207 23.9154C20.6207 23.5836 20.7147 23.2691 20.9028 22.9722C22.4702 22.588 24.0376 22.195 25.605 21.7933C27.256 21.1646 28.0815 19.846 28.0815 17.8375C28.0815 14.7985 25.9498 13.2791 21.6865 13.2791C19.722 13.2791 18.186 13.6808 17.0783 14.4842C16.4932 14.9209 15.8871 15.6631 15.2602 16.711C14.8004 17.5144 14.3406 17.9161 13.8808 17.9161H9.83695C8.81292 17.9161 8.3009 17.5319 8.3009 16.7634C8.3009 13.8467 9.66977 11.5413 12.4075 9.84723C14.8735 8.32777 17.9038 7.56799 21.4984 7.56799C25.6363 7.56799 29.0115 8.29284 31.6238 9.74245C34.6959 11.4366 36.2319 13.934 36.2319 17.2349C36.2319 21.217 33.8808 23.9241 29.1786 25.3562C34.7586 27.3298 37.5486 30.5958 37.5486 35.1542Z" fill="#9A9A9A"/>
<path d="M186.241 171.527C196.171 187.093 189.732 206.721 171.86 215.369C153.987 224.017 131.449 218.409 121.519 202.844C118.875 198.698 117.313 194.096 116.951 189.37C115.569 207.141 97.9081 220.563 77.5094 219.354C57.1109 218.146 41.6994 202.765 43.0868 185C44.4742 167.235 62.1352 153.813 82.5337 155.021C87.8888 155.338 93.1007 156.666 97.8754 158.915C80.3939 149.782 74.6724 129.986 85.1635 114.702C95.6545 99.4191 118.385 94.4362 135.934 103.573C153.483 112.71 159.205 132.506 148.713 147.789C145.557 152.388 141.134 156.228 135.873 158.984C153.774 150.355 176.312 155.962 186.241 171.527Z" fill="#9A9A9A"/>
<path d="M37.0852 73.6579C39.0321 77.0182 37.7696 81.2558 34.2654 83.1227C30.7611 84.9897 26.3421 83.7791 24.3952 80.4187C23.8767 79.5238 23.5704 78.5302 23.4994 77.5099C23.2285 81.3464 19.7658 84.244 15.7662 83.9832C11.7667 83.7223 8.745 80.4017 9.01702 76.5665C9.28904 72.7312 12.7518 69.8335 16.7513 70.0944C17.8013 70.1629 18.8232 70.4495 19.7593 70.935C16.3318 68.9633 15.21 64.6895 17.2669 61.39C19.3239 58.0905 23.7807 57.0147 27.2215 58.9872C30.6623 60.9597 31.7841 65.2335 29.7271 68.533C29.1082 69.5258 28.2411 70.355 27.2096 70.9498C30.7193 69.0869 35.1383 70.2975 37.0852 73.6579Z" fill="#9A9A9A"/>
</g>
<defs>
<clipPath id="clip0_1_55">
<rect width="234" height="333" fill="white"/>
</clipPath>
</defs>
</svg>
