<svg width="234" height="333" viewBox="0 0 234 333" fill="none" xmlns="http://www.w3.org/2000/svg">
<g clip-path="url(#clip0_1_230)">
<path d="M224.703 0.377991H9.29717C4.37124 0.377991 0.377991 4.38313 0.377991 9.32373V323.676C0.377991 328.617 4.37124 332.622 9.29717 332.622H224.703C229.629 332.622 233.622 328.617 233.622 323.676V9.32373C233.622 4.38313 229.629 0.377991 224.703 0.377991Z" fill="#1B1B1B" stroke="#808080" stroke-width="0.756"/>
<path d="M37.791 13.1145L25.14 44.5904C24.8044 45.407 23.9543 45.8154 22.5897 45.8154H17.6232C16.5941 45.8154 16.0796 45.5579 16.0796 45.0431C16.0796 44.546 18.1937 39.522 22.4219 29.9709C24.8827 24.4675 27.3324 18.973 29.7709 13.4874H14.9051C14.838 14.2685 14.6367 15.4047 14.3011 16.896C13.9879 17.0557 13.6523 17.1356 13.2944 17.1356H9.40175C8.32793 17.1356 7.79102 16.8249 7.79102 16.2036C7.79102 15.9018 8.1154 13.1057 8.76417 7.81537H37.791V13.1145Z" fill="#999999"/>
<path d="M186.241 172.527C196.171 188.093 189.732 207.721 171.86 216.369C153.987 225.017 131.449 219.409 121.519 203.844C118.875 199.698 117.313 195.096 116.951 190.37C115.569 208.141 97.9081 221.563 77.5094 220.354C57.1109 219.146 41.6994 203.765 43.0868 186C44.4742 168.235 62.1352 154.813 82.5337 156.021C87.8888 156.338 93.1007 157.666 97.8754 159.915C80.3939 150.782 74.6724 130.986 85.1635 115.702C95.6545 100.419 118.385 95.4362 135.934 104.573C153.483 113.71 159.205 133.506 148.713 148.789C145.557 153.388 141.134 157.228 135.873 159.984C153.774 151.355 176.312 156.962 186.241 172.527Z" fill="#9A9A9A"/>
<path d="M37.0852 73.6579C39.0321 77.0182 37.7696 81.2558 34.2654 83.1227C30.7611 84.9897 26.3421 83.7791 24.3952 80.4187C23.8767 79.5238 23.5704 78.5302 23.4994 77.5099C23.2285 81.3464 19.7658 84.244 15.7662 83.9832C11.7667 83.7223 8.745 80.4017 9.01702 76.5665C9.28904 72.7312 12.7518 69.8335 16.7513 70.0944C17.8013 70.1629 18.8232 70.4495 19.7593 70.935C16.3318 68.9633 15.21 64.6895 17.2669 61.39C19.3239 58.0905 23.7807 57.0147 27.2215 58.9872C30.6623 60.9597 31.7841 65.2335 29.7271 68.533C29.1082 69.5258 28.2411 70.355 27.2096 70.9498C30.7193 69.0869 35.1383 70.2975 37.0852 73.6579Z" fill="#9A9A9A"/>
</g>
<defs>
<clipPath id="clip0_1_230">
<rect width="234" height="333" fill="white"/>
</clipPath>
</defs>
</svg>
