<svg width="234" height="333" viewBox="0 0 234 333" fill="none" xmlns="http://www.w3.org/2000/svg">
<path d="M224.703 0.37793H9.29712C4.37119 0.37793 0.37793 4.38307 0.37793 9.32367V323.676C0.37793 328.617 4.37119 332.622 9.29712 332.622H224.703C229.629 332.622 233.622 328.617 233.622 323.676V9.32367C233.622 4.38307 229.629 0.37793 224.703 0.37793Z" fill="black" stroke="#808080" stroke-width="0.755906"/>
<path d="M181 233H154.919L144.612 205.811H90.8363L80.0812 233H54L104.818 101H130.272L181 233ZM135.201 181.313L117.724 135.997L100.157 181.313H135.201Z" fill="#999999"/>
<path d="M218.165 277.246H216.559V271.66H218.165V277.246Z" fill="black"/>
<path d="M37.621 42H31.2896L28.7875 34.9586H15.7332L13.1223 42H6.79095L19.1273 7.81531H25.3064L37.621 42ZM26.503 28.6143L22.2603 16.8786L17.9959 28.6143H26.503Z" fill="#999999"/>
<path d="M36.0852 77.6579C38.0321 81.0182 36.7696 85.2558 33.2654 87.1227C29.7611 88.9897 25.3421 87.7791 23.3952 84.4187C22.8767 83.5238 22.5704 82.5302 22.4994 81.5099C22.2285 85.3464 18.7658 88.244 14.7662 87.9832C10.7667 87.7223 7.745 84.4017 8.01702 80.5665C8.28904 76.7312 11.7518 73.8335 15.7513 74.0944C16.8013 74.1629 17.8232 74.4495 18.7593 74.935C15.3318 72.9633 14.21 68.6895 16.2669 65.39C18.3239 62.0905 22.7807 61.0147 26.2215 62.9872C29.6623 64.9597 30.7841 69.2335 28.7271 72.533C28.1082 73.5258 27.2411 74.355 26.2096 74.9498C29.7193 73.0869 34.1383 74.2975 36.0852 77.6579Z" fill="#9A9A9A"/>
</svg>
